<svg xmlns="http://www.w3.org/2000/svg" width="190" height="14" viewBox="0 0 190 14"><path fill="#4765A7" d="M72 5V3.5c0-.6.2-.5 1.1-.5h.9V0h-1.7C69.8 0 69 1.4 69 3.4V5h-2v2h2v7h3V7h2.1l.3-2H72z"/><path fill="#0AE" d="M151.8 2.5c-.6.2-1.1.4-1.8.5.6-.4 1.1-1 1.3-1.7-.6.4-1.2.6-1.9.7-.6-.6-1.4-1-2.2-1-1.7 0-3.1 1.4-3.1 3.1 0 .2 0 .5.1.7-2.5-.1-4.8-1.3-6.3-3.2-.3.5-.4 1-.4 1.5 0 1.1.8 2 1.6 2.6-.5 0-1.1-.2-1.1-.4 0 1.5.8 2.7 2.2 3-.3.1-.7.1-.9.1-.2 0-.5 0-.6-.1.4 1.2 1.5 2.1 2.8 2.1-1 .8-2.4 1.3-3.8 1.3h-.7c1.4.9 3 1.4 4.7 1.4 5.6 0 8.7-4.7 8.7-8.7V4c.5-.3 1-.9 1.4-1.5z"/><path fill="#4F7197" d="M116 2.6v.3c0 .3-.3.6-.4.8-.5.9-1.2 1.7-1.8 2.5-.3.4-.6.8-.9 1.3-.2.3-.2.5 0 .8.1.2.3.3.4.5.5.5 1.1 1 1.6 1.6.4.5 1 .9 1 1.6 0 .3-.4.5-.7.5h-2.8c-.4 0-.7-.1-1-.2-.4-.2-.8-.6-1.1-.9-.4-.4-.7-.8-1.1-1.1-.4-.4-.8-.3-1.1.2-.1.1-.1.2-.1.3-.1.3-.1.7-.1 1 0 .5-.2.7-.8.7h-1.2c-.3 0-.6 0-.9-.1-1.6-.3-2.9-1.2-3.9-2.4-1.2-1.4-2.2-3-3-4.7-.4-.8-1.1-1.7-1.1-2.5v-.3c0-.3.4-.3.6-.3h2.4c.6 0 .8.1 1 .6.5 1.1 1 2.2 1.7 3.3.2.3.5.6.8.8.3.1.5.1.6-.2.1-.1.1-.2.1-.4.1-.3.1-.6.1-.9.1-.7 0-1.4-.1-2.2-.1-.4-.3-.6-.7-.7-.1 0-.2 0-.2-.1-.2 0-.2-.1-.1-.2.2-.2.4-.4.6-.4.4-.1.7-.1 1.1-.1.7 0 1.5 0 2.2.1.5.1.7.3.8.8v3.5c0 .2.1.5.2.7.1.2.4.3.6.1.2-.2.5-.4.7-.7.8-1.1 1.4-2.3 1.9-3.6.2-.4.3-.6.7-.6h.1c1 0 2 .1 3 .1.4 0 .9.1.9.5z"/><g fill="#DD4E40"><path d="M180.5 8.2l-.6-.5c-.2-.2-.3-.3-.3-.5s.2-.4.4-.6c.7-.5 1.5-1.2 1.5-2.5 0-.9-.4-1.5-.8-1.9h.4l2-1.1h-4.5c-.9 0-2.1.1-3.2 1-.7.6-1.2 1.5-1.2 2.4 0 .7.3 1.4.8 1.9.7.7 1.6.9 2.3.9h.2v.3c0 .4.1.7.3.9-.8.1-2 .2-2.9.8-1.3.8-1.4 1.9-1.4 2.2 0 1.3 1.2 2.6 3.9 2.6 3.1 0 4.7-1.7 4.7-3.3-.1-1.4-.8-2-1.6-2.6zm-4.2-4.6c0-.5.1-.8.3-1 .2-.3.6-.4 1-.4.7 0 1.1.5 1.4.9.3.5.5 1.2.5 1.8 0 .2 0 .7-.3 1-.2.2-.6.4-1 .4-.7 0-1.1-.5-1.4-.9-.4-.6-.5-1.3-.5-1.8zm4.1 7.7c0 .9-.8 1.5-2.2 1.5-1.6 0-2.7-.7-2.7-1.7 0-.9.7-1.2 1.3-1.4.6-.2 1.5-.2 1.7-.2h.3c1.2.8 1.6 1.1 1.6 1.8z"/><path d="M185.9 3.7V1.1h-1.1v2.6h-2.7v1.1h2.7v2.8h1.1V4.8h2.6V3.7z"/></g><path fill="#007AFF" d="M13 2.4l-1.6-1.3s-.1-.1-.2-.1-.1 0-.2.1L5.3 8.7S3 6.5 2.9 6.4s-.1-.2-.3-.2-.2.1-.2.2-.9.9-1.3 1.3l-.1.1v.3l.1.1s4.1 3.9 4.1 4 .1.2.3.2c.1 0 .2-.1.3-.2l7.3-9.3s.1-.1.1-.2c-.1-.2-.1-.2-.2-.3zm31.3 4.2c0-.8.5-1.5 1.3-1.9-.1-.5-.3-.9-.5-1.3-.9.2-1.6-.1-2.1-.7-.6-.6-.8-1.3-.5-2.1C41.9.3 41.4.1 41 0c-.4.8-1.3 1.3-2.1 1.3S37.3.8 36.8 0c-.5.1-.9.3-1.3.5.2.9 0 1.6-.5 2.1-.6.6-1.3.9-2.1.7-.2.4-.4.9-.5 1.3.8.4 1.3 1.1 1.3 1.9s-.7 1.8-1.4 2.2c.1.5.3.9.5 1.3.9-.2 1.6 0 2.1.5.6.6.8 1.3.5 2.1.4.2.9.4 1.3.5.4-.8 1.3-1.3 2.1-1.3s1.6.5 2.1 1.3c.5-.1.9-.3 1.3-.5-.2-.9 0-1.6.5-2.1.6-.6 1.3-.9 2.1-.7.2-.4.4-.9.5-1.3-.5-.4-1-1-1-1.9zM38.9 10c-1.9 0-3.4-1.5-3.4-3.4s1.5-3.4 3.4-3.4 3.4 1.5 3.4 3.4-1.5 3.4-3.4 3.4z"/></svg>