<svg width="16" height="16" xmlns="http://www.w3.org/2000/svg" viewBox="0 0 100 100" preserveAspectRatio="xMidYMid" class="uil-default"><path fill="none" class="bk" d="M0 0h100v100H0z"/><rect x="46.5" y="40" width="7" height="20" rx="5" ry="5" fill="#007AFF" transform="translate(0 -30)"><animate attributeName="opacity" from="1" to="0" dur="0.75s" begin="0s" repeatCount="indefinite"/></rect><rect x="46.5" y="40" width="7" height="20" rx="5" ry="5" fill="#007AFF" transform="rotate(30 105.98 65)"><animate attributeName="opacity" from="1" to="0" dur="0.75s" begin="0.0625s" repeatCount="indefinite"/></rect><rect x="46.5" y="40" width="7" height="20" rx="5" ry="5" fill="#007AFF" transform="rotate(60 75.98 65)"><animate attributeName="opacity" from="1" to="0" dur="0.75s" begin="0.125s" repeatCount="indefinite"/></rect><rect x="46.5" y="40" width="7" height="20" rx="5" ry="5" fill="#007AFF" transform="rotate(90 65 65)"><animate attributeName="opacity" from="1" to="0" dur="0.75s" begin="0.1875s" repeatCount="indefinite"/></rect><rect x="46.5" y="40" width="7" height="20" rx="5" ry="5" fill="#007AFF" transform="rotate(120 58.66 65)"><animate attributeName="opacity" from="1" to="0" dur="0.75s" begin="0.25s" repeatCount="indefinite"/></rect><rect x="46.5" y="40" width="7" height="20" rx="5" ry="5" fill="#007AFF" transform="rotate(150 54.02 65)"><animate attributeName="opacity" from="1" to="0" dur="0.75s" begin="0.3125s" repeatCount="indefinite"/></rect><rect x="46.5" y="40" width="7" height="20" rx="5" ry="5" fill="#007AFF" transform="rotate(180 50 65)"><animate attributeName="opacity" from="1" to="0" dur="0.75s" begin="0.375s" repeatCount="indefinite"/></rect><rect x="46.5" y="40" width="7" height="20" rx="5" ry="5" fill="#007AFF" transform="rotate(-150 45.98 65)"><animate attributeName="opacity" from="1" to="0" dur="0.75s" begin="0.4375s" repeatCount="indefinite"/></rect><rect x="46.5" y="40" width="7" height="20" rx="5" ry="5" fill="#007AFF" transform="rotate(-120 41.34 65)"><animate attributeName="opacity" from="1" to="0" dur="0.75s" begin="0.5s" repeatCount="indefinite"/></rect><rect x="46.5" y="40" width="7" height="20" rx="5" ry="5" fill="#007AFF" transform="rotate(-90 35 65)"><animate attributeName="opacity" from="1" to="0" dur="0.75s" begin="0.5625s" repeatCount="indefinite"/></rect><rect x="46.5" y="40" width="7" height="20" rx="5" ry="5" fill="#007AFF" transform="rotate(-60 24.02 65)"><animate attributeName="opacity" from="1" to="0" dur="0.75s" begin="0.625s" repeatCount="indefinite"/></rect><rect x="46.5" y="40" width="7" height="20" rx="5" ry="5" fill="#007AFF" transform="rotate(-30 -5.98 65)"><animate attributeName="opacity" from="1" to="0" dur="0.75s" begin="0.6875s" repeatCount="indefinite"/></rect></svg>