<svg width="118" height="115" viewBox="0 0 118 115" fill="none" xmlns="http://www.w3.org/2000/svg">
<path d="M58.9901 114.315C91.5695 114.315 117.98 109.404 117.98 103.346C117.98 97.2886 91.5695 92.3779 58.9901 92.3779C26.4108 92.3779 0 97.2886 0 103.346C0 109.404 26.4108 114.315 58.9901 114.315Z" fill="#7E7A7C"/>
<path d="M115.449 63.4102C115.449 60.0353 113.621 56.9417 110.668 55.3948C102.02 50.8247 82.6143 47.5905 60.0448 47.5905C37.4753 47.5905 18.0697 50.8247 9.4216 55.3948C6.46858 56.9417 4.6405 60.1056 4.6405 63.4102L4.57019 98.2137C4.6405 104.963 29.3896 110.377 59.9745 110.448C90.5593 110.448 115.308 104.963 115.379 98.2137L115.449 63.4102Z" fill="#3F1A15"/>
<path d="M115.449 63.4102C115.449 60.0353 113.621 56.9417 110.668 55.3948C102.02 50.8247 82.6143 47.5905 60.0448 47.5905C37.0534 47.5905 17.3666 50.9653 8.92942 55.6761C8.92942 55.7464 8.92942 55.6761 8.92942 55.6761C16.9448 54.6215 26.1554 53.9886 35.9285 53.9886C58.498 53.9886 77.9035 57.2229 86.5517 61.7931C89.5047 63.3399 91.3328 66.5038 91.3328 69.8084L91.4031 101.799C91.4031 104.12 89.6453 106.088 87.3251 106.44C79.2394 107.424 69.9585 108.057 60.0448 108.057C29.46 108.057 4.71081 102.573 4.6405 95.8231V98.2137C4.71081 104.963 29.46 110.377 60.0448 110.448C71.435 110.448 81.9815 109.674 90.7703 108.338C91.0515 108.268 91.2624 108.268 91.5437 108.198C91.8952 108.127 92.2468 108.127 92.528 108.057C106.379 105.807 115.379 102.221 115.449 98.2137V63.4102Z" fill="#351815"/>
<path d="M115.449 63.4102C115.449 60.0354 113.621 56.9417 110.668 55.3949C110.598 55.3246 110.527 55.3246 110.457 55.2543C100.684 51.106 82.0518 48.2233 60.537 48.2233C37.3347 48.2233 17.2963 51.5278 8.43724 56.3089C8.01538 56.5198 7.66385 56.7308 7.3123 57.012C5.69517 58.6995 4.71082 60.9494 4.71082 63.4102L4.6405 90.7608C4.85143 90.7608 5.06236 90.6905 5.27329 90.6202C6.11701 90.2686 5.34362 81.9017 6.25765 81.7611C7.24199 81.6205 9.35128 88.7921 11.8121 88.6515C14.3433 88.5109 14.6245 85.6282 17.9994 86.1907C19.6868 86.4719 21.7258 93.1514 21.093 94.3466C21.093 94.3466 20.1087 97.5106 22.1477 98.2137C23.2023 98.5652 24.1164 96.1747 23.6242 94.2763C23.6242 94.2763 23.9758 87.2453 27.3507 87.6672C30.3037 88.0187 30.374 93.9951 33.6786 93.7138C36.491 93.5029 35.9285 88.9328 39.3736 89.0734C42.7485 89.214 43.311 93.2217 42.8189 94.4169C42.3267 95.6122 41.8345 98.3543 44.1547 98.3543C46.0531 98.3543 45.0688 94.4872 45.0688 94.4872C44.9281 93.1514 45.9125 89.0734 48.6546 89.7062C51.8185 90.4796 52.7325 99.0574 52.381 100.182C52.0294 101.237 51.6076 104.612 53.4356 104.893C55.4746 105.174 56.5293 103.417 55.334 100.112C54.42 97.6512 56.8105 89.7062 60.0448 90.1983C62.6463 90.6202 64.4743 95.5419 66.7946 95.4013C70.8022 95.2607 70.6616 90.128 73.8256 89.4249C74.1068 89.4249 74.3177 89.4249 74.599 89.3546C76.638 89.8468 77.8332 95.1903 81.3487 95.1903C85.2861 95.1903 86.2001 88.089 89.0828 88.089C91.2624 88.089 93.5124 92.7998 94.4264 94.9794C94.7076 95.6122 94.7779 96.3153 94.7076 97.0184C94.567 98.3543 94.4967 100.815 96.3951 100.885C97.9419 100.956 98.0122 97.9324 97.3091 96.1747C96.606 94.4169 98.7153 86.8938 102.231 86.05C103.989 85.6282 107.434 91.0421 110.035 90.4796C112.637 89.9171 113.762 80.7065 114.535 81.4096C114.887 81.6908 115.168 83.308 115.379 85.136L115.449 63.4102Z" fill="#351815"/>
<path d="M117.699 85.558C117.347 84.8549 116.996 83.308 116.996 82.5346L117.136 63.2697C117.136 59.8245 115.238 56.5902 112.215 54.9731C103.285 50.2623 83.3174 46.9578 60.1151 46.8875C36.9128 46.8875 16.8744 50.192 8.01537 54.9731C4.99204 56.5902 3.09367 59.8245 3.09367 63.2697C3.09367 63.2697 4.21862 83.2377 3.02335 85.347C2.53118 86.1907 2.10933 87.5266 2.39057 88.2297C2.88274 89.4953 4.00769 89.7062 4.7811 89.3547C5.62482 89.0032 4.85141 80.6363 5.76544 80.4956C6.74978 80.355 8.85908 87.5266 11.3199 87.386C13.8511 87.2454 14.1323 84.3627 17.5072 84.9252C19.1947 85.2064 21.2336 91.8859 20.6009 93.0811C20.6009 93.0811 19.6165 96.2451 21.6555 96.9482C22.7102 97.2997 23.6242 94.9092 23.132 93.0108C23.132 93.0108 23.4836 85.9798 26.8584 86.4017C29.8115 86.7532 29.8818 92.7296 33.1863 92.4483C35.9987 92.2374 35.4363 87.6673 38.8815 87.8079C42.2563 87.9485 42.8188 91.9562 42.3266 93.1514C41.8345 94.3467 41.3423 97.0888 43.6625 97.0888C45.5609 97.0888 44.5766 93.2218 44.5766 93.2218C44.436 91.8859 45.4203 87.8079 48.1624 88.4407C51.3263 89.2141 52.2404 97.7919 51.8888 98.9169C51.5373 99.9715 51.1154 103.346 52.9435 103.628C54.9824 103.909 56.0371 102.151 54.8418 98.8466C53.9278 96.3857 56.3183 88.4407 59.5526 88.9328C62.1541 89.3547 63.9821 94.2764 66.3024 94.1358C70.31 93.9952 70.1694 88.8625 73.3334 88.1594C73.6146 88.1594 73.8255 88.1594 74.1068 88.0891C76.1458 88.5813 77.341 93.9249 80.8565 93.9249C84.7939 93.9249 85.7079 86.8235 88.5906 86.8235C90.7702 86.8235 93.0202 91.5343 93.9342 93.7139C94.2154 94.3467 94.2857 95.0498 94.2154 95.7529C94.0748 97.0888 94.0045 99.5497 95.9029 99.62C97.4497 99.6903 97.52 96.6669 96.8169 94.9092C96.1138 93.1514 98.2231 85.6283 101.739 84.7845C103.496 84.3627 106.942 89.7766 109.543 89.2141C112.144 88.6516 113.269 79.441 114.043 80.1441C114.887 80.8472 115.379 89.7766 115.379 89.7766C115.59 89.8469 115.941 89.7766 116.293 89.5656C117.84 88.9328 118.402 87.0345 117.699 85.558Z" fill="#662217"/>
<path d="M38.53 85.9093C35.0848 85.7687 35.6473 90.3388 32.8349 90.5498C29.5303 90.831 29.5303 84.8547 26.507 84.5031C23.0618 84.0813 22.7805 91.1123 22.7805 91.1123C23.0618 92.87 22.7805 95.9636 21.515 95.823C21.0931 95.7527 20.4603 95.4715 20.4603 94.4168C20.39 95.4011 20.6009 96.5261 21.7962 96.948C22.8508 97.2995 23.7649 94.909 23.2727 93.0106C23.2727 93.0106 23.6243 85.9796 26.9991 86.4015C29.9522 86.753 30.0225 92.7294 33.327 92.4481C36.1394 92.2372 35.5769 87.6671 39.0221 87.8077C40.6393 87.878 41.6236 88.8623 42.1158 89.9873C41.9752 88.3702 41.0611 85.9796 38.53 85.9093Z" fill="#591812"/>
<path d="M17.015 83.0267C13.6401 82.4642 13.2886 85.3469 10.8277 85.4875C8.29656 85.6281 6.18724 78.4565 5.27321 78.5971C4.28887 78.7378 4.78105 86.8234 4.35919 87.6671C3.86702 88.5812 2.67175 88.7921 2.3202 87.1046C2.24989 87.5265 2.17958 87.9484 2.3202 88.2296C2.81237 89.4952 3.93733 89.7061 4.71074 89.3546C5.55446 89.003 4.78104 80.6361 5.69507 80.4955C6.67941 80.3549 8.78871 87.5265 11.2496 87.3859C13.7807 87.2453 14.062 84.3626 17.4369 84.925C18.3509 85.0657 19.4055 87.175 20.0383 89.2139C19.6868 86.8234 18.2806 83.2376 17.015 83.0267Z" fill="#591812"/>
<path d="M47.8108 86.6125C45.0687 85.9797 44.0843 90.0577 44.225 91.3935C44.225 91.3935 45.0687 95.9637 43.1703 95.9637C42.6078 95.9637 42.2563 95.5418 42.0453 94.7684C41.975 95.8934 42.2563 97.0887 43.7328 97.159C45.6312 97.159 44.6468 93.2919 44.6468 93.2919C44.5062 91.956 45.4905 87.878 48.2326 88.5108C49.5685 88.8624 50.4825 90.5498 51.1153 92.5888C50.6232 89.917 49.5685 87.0343 47.8108 86.6125Z" fill="#591812"/>
<path d="M117.699 85.5578C117.629 85.4172 117.558 85.2765 117.488 85.0656C117.488 86.1906 116.926 87.3155 115.871 87.878C115.66 88.0186 115.519 88.0889 115.308 88.0889C115.379 89.2139 115.449 89.9873 115.449 89.9873C115.66 90.0576 116.012 89.9873 116.363 89.7764C117.84 88.9327 118.402 87.0343 117.699 85.5578Z" fill="#591812"/>
<path d="M96.8168 94.6981C97.0277 96.2449 96.7465 98.6355 95.5512 98.6355C94.9184 98.6355 94.2856 98.0027 94.2153 97.159C94.2153 98.4246 94.5669 99.7604 95.9731 99.7604C97.5199 99.8307 97.5902 96.8074 96.8871 95.0497C96.8871 94.9794 96.8168 94.8387 96.8168 94.6981Z" fill="#591812"/>
<path d="M113.691 78.3862C112.848 77.6831 111.793 86.8234 109.191 87.4562C106.59 88.0187 103.145 82.6048 101.387 83.0267C97.8715 83.8704 96.4654 89.9874 96.606 92.4482C96.606 92.9404 96.6763 94.0653 96.7466 94.5575C96.4653 92.2373 98.5043 85.6985 101.809 84.8547C103.567 84.4329 107.012 89.8467 109.613 89.2843C112.215 88.7218 113.34 79.5112 114.113 80.2143C114.183 80.2846 114.183 80.3549 114.254 80.4252C114.113 79.4408 113.902 78.5971 113.691 78.3862Z" fill="#591812"/>
<path d="M54.8418 98.6355C55.123 100.815 54.5606 102.713 52.9434 102.503C52.5216 102.432 51.8185 102.01 51.6779 101.167C51.6779 102.362 51.9591 103.487 53.0138 103.628C55.0528 103.909 56.1074 102.151 54.9121 98.8464C54.9121 98.8464 54.8418 98.7761 54.8418 98.6355Z" fill="#591812"/>
<path d="M93.0906 91.5341C92.1766 89.2842 90.4188 85.0656 88.2392 85.0656C85.3565 85.0656 84.4425 92.1669 80.5051 92.1669C76.9896 92.1669 75.7943 86.753 73.7553 86.3312C73.4741 86.3312 73.2632 86.3312 72.9819 86.4015C69.7477 87.1046 69.8883 92.1669 65.9509 92.3778C63.701 92.4482 61.8729 87.5265 59.2012 87.1749C55.9669 86.6827 53.5764 94.6278 54.4904 97.0886C54.631 97.4402 54.7013 97.7917 54.7716 98.1433C54.4904 95.0496 56.7403 88.6514 59.623 89.0733C62.2245 89.4952 64.0526 94.4168 66.3728 94.2762C70.3805 94.1356 70.2398 89.003 73.4038 88.2999C73.685 88.2999 73.896 88.2999 74.1772 88.2296C76.2162 88.7217 77.4115 94.0653 80.927 94.0653C84.8643 94.0653 85.7783 86.964 88.6611 86.964C90.7 86.964 92.8094 91.1123 93.7937 93.4325C93.7234 93.0106 93.3015 91.956 93.0906 91.5341Z" fill="#591812"/>
<path d="M112.215 54.9731C103.285 50.2623 83.3173 46.9578 60.115 46.8875C36.9127 46.8875 16.8744 50.192 8.01533 54.9731C8.01533 54.9731 7.94502 54.9731 7.94502 55.0434C3.44518 57.5042 2.32022 63.4103 8.29657 66.5039C17.5775 71.1444 37.4049 74.3084 60.326 74.3084C83.0361 74.3084 102.512 70.9335 112.074 66.6445C118.05 63.9728 117.136 58.2777 113.129 55.5356C112.777 55.3246 112.496 55.1137 112.215 54.9731Z" fill="#752616"/>
<path d="M60.2557 68.121C86.5833 68.121 107.926 63.4306 107.926 57.6448C107.926 51.8589 86.5833 47.1686 60.2557 47.1686C33.9282 47.1686 12.5856 51.8589 12.5856 57.6448C12.5856 63.4306 33.9282 68.121 60.2557 68.121Z" fill="#87341E"/>
<mask id="mask0" mask-type="alpha" maskUnits="userSpaceOnUse" x="4" y="51" width="60" height="22">
<path d="M59.5526 71.2849C31.3583 70.7224 9.28096 65.3086 9.28096 58.7698C9.28096 56.0277 13.148 53.4965 19.6868 51.4575C10.4762 53.7074 4.85144 56.7308 4.85144 60.0353C4.85144 66.9257 29.249 72.5505 59.5526 72.6208C64.3337 72.4802 64.1228 71.3552 59.5526 71.2849Z" fill="url(#paint0_linear)"/>
</mask>
<g mask="url(#mask0)">
<path d="M59.5526 71.2849C31.3583 70.7224 9.28096 65.3086 9.28096 58.7698C9.28096 56.0277 13.148 53.4965 19.6868 51.4575C10.4762 53.7074 4.85144 56.7308 4.85144 60.0353C4.85144 66.9257 29.249 72.5505 59.5526 72.6208C64.3337 72.4802 64.1228 71.3552 59.5526 71.2849Z" fill="#87341E"/>
<path d="M61.5212 68.0506C67.1518 68.0506 71.7162 66.2563 71.7162 64.043C71.7162 61.8296 67.1518 60.0353 61.5212 60.0353C55.8907 60.0353 51.3263 61.8296 51.3263 64.043C51.3263 66.2563 55.8907 68.0506 61.5212 68.0506Z" fill="#662217"/>
<path d="M70.521 63.6915C70.6616 65.4492 66.443 66.8554 61.3104 66.8554C56.2481 66.8554 52.1701 65.4492 52.0998 63.6915C51.9591 57.7854 59.8339 53.4262 61.3104 51.9497C63.0681 53.8481 69.9585 57.0823 70.521 63.6915Z" fill="#F4F2E4"/>
<path d="M61.3104 51.9497C60.7479 53.7075 57.6542 58.7698 57.7246 65.7305C57.7246 66.082 57.7949 66.3633 57.8652 66.6445C58.5683 66.7148 59.2714 66.7851 59.9745 66.8554C59.9042 66.5039 59.9042 66.1523 59.9042 65.7305C59.9042 58.8401 61.0994 53.7075 61.3104 51.9497ZM61.3104 51.9497C60.1151 53.5668 53.7169 58.4885 53.8575 65.0274C53.8575 65.2383 53.9278 65.3789 53.9981 65.5898C54.4903 65.8008 55.0528 66.0117 55.6856 66.2227C55.6856 66.082 55.6153 65.9414 55.6153 65.7305C55.4746 58.8401 60.3963 53.7075 61.3104 51.9497ZM62.7166 65.7305C62.7166 66.1523 62.7166 66.5039 62.6463 66.8554C63.4197 66.7851 64.1228 66.7851 64.7556 66.6445C64.8259 66.3633 64.8962 66.0117 64.8962 65.7305C64.6853 57.9964 62.0135 54.1293 61.3104 51.9497C61.5916 54.1293 62.6463 57.9964 62.7166 65.7305ZM61.3104 51.9497C62.4353 54.1293 66.7243 57.9964 67.0758 65.7305C67.0758 65.8711 67.0758 66.082 67.0055 66.2227C67.6383 66.082 68.2008 65.8711 68.6929 65.6602C68.7632 65.4492 68.7632 65.3086 68.7632 65.0977C68.3414 57.7151 62.7869 54.059 61.3104 51.9497Z" fill="#E5E1C6"/>
<path d="M29.4598 64.8164C35.0904 64.8164 39.6548 63.0221 39.6548 60.8087C39.6548 58.5953 35.0904 56.801 29.4598 56.801C23.8293 56.801 19.2649 58.5953 19.2649 60.8087C19.2649 63.0221 23.8293 64.8164 29.4598 64.8164Z" fill="#662217"/>
<path d="M38.3893 60.5275C38.5299 62.2853 34.3113 63.6915 29.1786 63.6915C24.1163 63.6915 20.0384 62.2853 19.968 60.5275C19.8274 54.6215 27.7021 50.2623 29.1786 48.7858C31.0067 50.6841 37.8971 53.9184 38.3893 60.5275Z" fill="#F4F2E4"/>
<path d="M29.249 48.7858C28.6865 50.5435 25.5928 55.6058 25.6632 62.5665C25.6632 62.9181 25.7335 63.1993 25.8038 63.4806C26.5069 63.5509 27.21 63.6212 27.9131 63.6915C27.8428 63.3399 27.8428 62.9884 27.8428 62.5665C27.7725 55.6058 28.9677 50.5435 29.249 48.7858ZM29.249 48.7858C28.0537 50.4029 21.6555 55.3246 21.7961 61.8634C21.7961 62.0744 21.8664 62.215 21.9367 62.4259C22.4289 62.6368 22.9914 62.8478 23.6242 63.0587C23.6242 62.9181 23.5539 62.7775 23.5539 62.5665C23.3429 55.6058 28.3349 50.5435 29.249 48.7858ZM30.6552 62.5665C30.6552 62.9884 30.6552 63.3399 30.5849 63.6915C31.3583 63.6212 32.0614 63.6212 32.6942 63.4806C32.7645 63.1993 32.8348 62.8478 32.8348 62.5665C32.6239 54.8324 29.9521 50.9654 29.249 48.7858C29.4599 50.9654 30.5146 54.8324 30.6552 62.5665ZM29.249 48.7858C30.3739 50.9654 34.6629 54.8324 35.0144 62.5665C35.0144 62.7072 35.0144 62.9181 34.9441 63.0587C35.5769 62.9181 36.1394 62.7071 36.6315 62.4962C36.7018 62.2853 36.7018 62.1447 36.7018 61.9337C36.28 54.5512 30.6552 50.8951 29.249 48.7858Z" fill="#E5E1C6"/>
<path d="M46.8265 54.1294C51.7968 54.1294 55.8261 52.5554 55.8261 50.6139C55.8261 48.6723 51.7968 47.0984 46.8265 47.0984C41.8561 47.0984 37.8268 48.6723 37.8268 50.6139C37.8268 52.5554 41.8561 54.1294 46.8265 54.1294Z" fill="#662217"/>
<path d="M54.7716 50.3325C54.9122 51.8794 51.1154 53.1449 46.6859 53.1449C42.1861 53.1449 38.6002 51.8794 38.6002 50.3325C38.4596 45.1296 45.4203 41.2625 46.6859 39.9266C48.2327 41.6141 54.2794 44.4968 54.7716 50.3325Z" fill="#F4F2E4"/>
<path d="M46.6156 39.997C46.1235 41.5438 43.3814 46.0436 43.4517 52.1606C43.4517 52.4418 43.522 52.7231 43.5923 53.0043C44.1548 53.0746 44.7876 53.1449 45.4907 53.1449C45.4204 52.7934 45.4204 52.5121 45.4204 52.1606C45.4204 45.9733 46.475 41.4735 46.6156 39.997ZM46.6156 39.997C45.561 41.4735 39.9362 45.7624 40.0065 51.5278C40.0065 51.6684 40.0768 51.8793 40.0768 52.02C40.4987 52.2309 40.9908 52.3715 41.5533 52.5824C41.5533 52.4418 41.483 52.3012 41.483 52.1606C41.483 45.9733 45.8422 41.4735 46.6156 39.997ZM47.8812 52.0903C47.8812 52.4418 47.8812 52.7934 47.8109 53.0746C48.4437 53.0746 49.0765 53.0043 49.7093 52.934C49.7796 52.6527 49.7796 52.3715 49.7796 52.0903C49.5687 45.2702 47.2484 41.8953 46.6156 39.9266C46.8969 41.8953 47.8109 45.2702 47.8812 52.0903ZM46.6156 39.997C47.6 41.8953 51.3967 45.3405 51.678 52.1606C51.678 52.3012 51.678 52.4418 51.678 52.5824C52.2404 52.4418 52.7326 52.2309 53.1545 52.0903C53.2248 51.9497 53.2248 51.7387 53.2248 51.5981C52.8732 44.989 47.8812 41.825 46.6156 39.997Z" fill="#E5E1C6"/>
</g>
<path d="M43.5099 52.3575H41.1655V60.9536H43.5099V52.3575Z" fill="#FF2A66"/>
<path d="M45.0073 48.7091H39.9072V53.5832H45.0073V48.7091Z" fill="#B21F54"/>
<path d="M41.8762 40.5102C39.2616 40.5102 36.4856 39.7032 34.7425 38.1861L30.9982 40.7039L26.35 48.0635C26.6728 48.2572 32.9672 51.9047 39.649 51.9047C41.5857 51.9047 43.5547 51.5819 45.3301 50.7104C45.9434 50.4199 46.5244 50.0971 47.0731 49.7098C47.0731 49.7098 47.0731 49.7097 47.0409 49.742C48.2997 48.9028 49.5586 48.0635 50.7852 47.2243C57.3056 42.8343 58.8873 33.2797 52.0764 26.7593C55.1106 24.177 55.498 10.2647 43.9098 10.6843C38.5837 10.878 35.1299 13.4603 33.871 14.2996C31.4178 15.9458 30.0298 18.3022 29.933 18.4959L34.0647 22.4016L36.0014 22.208C36.3242 22.1111 37.454 19.787 38.7451 19.787C39.4876 19.787 40.1977 20.0776 40.7787 20.8523C42.5218 23.1763 41.8117 25.1131 40.3914 26.5657C39.7458 26.8562 37.4217 33.6025 38.9388 33.6025C41.5857 33.6025 45.1687 34.2803 45.1041 38.057C45.1041 38.8963 44.8782 39.6064 44.5554 40.2197C43.7161 40.4134 42.78 40.5102 41.8762 40.5102Z" fill="#B21F54"/>
<path d="M30.1912 43.5123C31.0627 44.2225 32.0311 44.9649 33.1286 45.2877C35.3881 45.9655 37.9704 45.7719 40.1977 45.0617C41.3597 44.7066 42.4572 44.2225 43.4579 43.5123C44.2326 42.9636 45.3623 42.0598 45.3946 40.9623C45.4269 40.3167 45.2009 39.8325 44.8781 39.4129C44.7813 39.6711 44.6845 39.9293 44.5231 40.1876C43.6838 40.4135 42.78 40.5104 41.8439 40.5104C39.2293 40.5104 36.4533 39.7034 34.7102 38.1863L30.9659 40.704L29.5133 42.9636C29.7715 43.1573 29.9975 43.3509 30.1912 43.5123Z" fill="#910740"/>
<path d="M35.4851 16.7529C37.3896 17.1403 39.4231 17.1726 41.3276 17.0112C43.684 16.8498 45.879 16.3656 47.8803 15.1067C48.7841 14.5257 49.6233 13.8478 50.4949 13.2022C50.624 13.1054 50.7208 13.0408 50.8499 12.944C49.2683 11.4914 47.041 10.5554 43.9099 10.6845C38.5839 10.8781 35.13 13.4605 33.8711 14.2997C33.2578 14.7194 32.6768 15.1713 32.1926 15.6554C33.1933 16.2365 34.3876 16.527 35.4851 16.7529Z" fill="#910740"/>
<path d="M35.9691 22.2081C36.2918 22.1112 37.4216 19.8517 38.6805 19.7871C35.9045 19.5935 32.8057 18.9479 31.0949 16.8497C30.3848 17.7213 29.9651 18.3991 29.9329 18.496L34.0646 22.4017L35.9691 22.2081Z" fill="#910740"/>
<path d="M40.6498 12.5243C52.2703 12.5243 51.3664 26.7271 48.2999 29.3094C55.6596 36.3462 53.2064 46.9983 45.298 50.7427C43.5226 51.582 41.5536 51.937 39.6169 51.937C32.9674 51.937 26.6729 48.2895 26.3179 48.0958L30.9661 40.7362C32.7091 42.2533 35.4529 43.0603 38.0997 43.0603C41.715 43.0603 45.0397 41.5109 45.1043 38.057C45.1689 34.2804 41.5536 33.6025 38.939 33.6025C37.4219 33.6025 36.2598 33.8285 36.1953 33.8285L35.4206 29.5999C35.8725 29.4385 44.7492 26.1461 40.7466 20.8523C40.1656 20.0776 39.4555 19.7871 38.713 19.7871C36.5181 19.7871 34.1617 22.2726 34.0326 22.4017L29.9009 18.4959C30.03 18.27 32.6769 13.7509 37.2282 12.8794C38.4871 12.6211 39.6169 12.5243 40.6498 12.5243Z" fill="#D80056"/>
<path d="M39.6168 50.3553C35.0977 50.3553 30.74 48.5477 28.545 47.4824L31.4179 42.9311C33.2901 43.9963 35.6464 44.6096 38.0996 44.6096C43.1675 44.6096 46.589 41.995 46.6536 38.0892C46.6859 36.4753 46.1694 35.1196 45.1688 34.0866C43.8453 32.7309 41.7472 32.0531 38.9389 32.0531C38.3902 32.0531 37.906 32.0853 37.4541 32.1176L37.1636 30.5682C39.1326 29.6644 42.2636 27.8245 43.1352 24.9839C43.4902 23.8219 43.5548 21.982 42.0054 19.9161C41.1662 18.8186 40.0687 18.2376 38.7452 18.2376C36.9376 18.2376 35.1945 19.3674 34.0648 20.3035L31.9343 18.3022C32.9027 17.0433 34.8717 14.9451 37.5509 14.3964C38.6484 14.1704 39.7136 14.0736 40.6497 14.0736C44.3941 14.0736 46.8796 15.6876 48.0739 18.9155C49.4942 22.7567 48.4289 27.1789 47.2992 28.115C46.9764 28.4055 46.7504 28.8251 46.7504 29.2448C46.7504 29.6967 46.9118 30.1163 47.2346 30.4068C50.2366 33.2797 51.6246 37.0886 51.0113 40.8652C50.4302 44.5451 48.0416 47.7084 44.62 49.3224C43.1997 50.0002 41.5212 50.3553 39.6168 50.3553Z" fill="#FF2A66"/>
<path d="M45.4914 5.87479C45.4914 8.10205 44.2971 9.90968 42.8122 9.90968C41.3274 9.90968 40.1331 8.10205 40.1331 5.87479C40.1331 3.64754 42.7477 0 42.7477 0C42.7477 0 45.4914 3.64754 45.4914 5.87479Z" fill="#FF3115" fill-opacity="0.61"/>
<path d="M44.7491 6.61713C44.7491 8.13424 43.8776 9.39313 42.8124 9.39313C41.7471 9.39313 40.8756 8.16652 40.8756 6.61713C40.8756 5.10001 42.8124 2.00122 42.8124 2.00122C42.8124 2.00122 44.7491 5.10001 44.7491 6.61713Z" fill="#FF9B70"/>
<path d="M43.3935 10.2648C43.1352 9.49008 43.3612 8.81222 43.2644 8.03752C43.1998 7.48877 42.3928 7.4565 42.3928 8.03752C42.3928 8.6831 42.877 9.32868 42.7802 10.0065C42.6833 10.5876 42.7156 11.1686 42.7156 11.7819C42.7156 12.2661 43.458 12.2661 43.4903 11.7819C43.458 11.2654 43.5549 10.7167 43.3935 10.2648Z" fill="#593A38"/>
<path opacity="0.6" d="M44.0389 7.8762C44.0389 8.58634 43.4901 9.13509 42.78 9.13509C42.0699 9.13509 41.5211 8.58634 41.5211 7.8762C41.5211 7.16606 42.0699 5.03564 42.7477 5.03564C43.4579 5.03564 44.0389 7.16606 44.0389 7.8762Z" fill="#FFF1A5"/>
<path d="M46.4598 16.2041L42.2958 20.3035C42.9414 21.3042 43.2319 22.208 43.3287 23.0473L47.9446 18.5282C47.5573 17.6244 47.0408 16.8497 46.4598 16.2041Z" fill="#E8105E"/>
<path d="M47.9768 27.1466C48.461 26.1137 48.816 24.4352 48.7515 22.6276L39.1323 32.0531C40.3912 32.0853 41.521 32.2144 42.4571 32.5372L47.9768 27.1466Z" fill="#E8105E"/>
<path d="M34.0647 20.2712C35.0008 19.4965 36.3565 18.5927 37.8414 18.3022L42.1022 14.1382C41.6503 14.0737 41.1661 14.0414 40.6497 14.0414C39.875 14.0414 39.0357 14.1059 38.1319 14.2673L32.9995 19.3029L34.0647 20.2712Z" fill="#E8105E"/>
<path d="M46.6535 38.0572C46.6535 38.38 46.6212 38.6705 46.5567 38.9933L50.4302 35.1843C50.1074 34.3128 49.6877 33.4736 49.139 32.6989L46.1693 35.604C46.5244 36.3464 46.6535 37.1534 46.6535 38.0572Z" fill="#E8105E"/>
<path d="M51.0436 40.8654C51.0759 40.704 51.0759 40.5748 51.1082 40.4135L41.0371 50.2586C42.3606 50.1295 43.5872 49.8067 44.6524 49.2902C48.0417 47.7085 50.4303 44.5452 51.0436 40.8654Z" fill="#E8105E"/>
<path d="M41.2631 44.2224C40.327 44.4806 39.2618 44.6098 38.132 44.6098C37.7769 44.6098 37.4541 44.6098 37.0991 44.5775L32.4832 49.0965C33.4192 49.4193 34.4199 49.6776 35.4851 49.9035L41.2631 44.2224Z" fill="#E8105E"/>
<path d="M31.7083 43.0602C31.6115 42.9956 31.5146 42.9634 31.4178 42.8988L30.7076 44.0286L31.7083 43.0602Z" fill="#E8105E"/>
<path d="M65.836 51.5243H64.6309V58.651H65.836V51.5243Z" fill="#B21F54"/>
<path d="M67.5955 48.0129H62.879V52.5099H67.5955V48.0129Z" fill="#F7416C"/>
<path d="M86.5543 51.1523H85.3491V58.2791H86.5543V51.1523Z" fill="#B21F54"/>
<path d="M88.3136 47.641H83.5972V52.138H88.3136V47.641Z" fill="#F7416C"/>
<path d="M84.3269 19.0112C84.0033 19.0112 83.5346 19.119 83.1292 19.6398L83.0994 19.677L77.1592 29.5339L71.2748 19.7179L71.2488 19.677L71.219 19.6398C70.9028 19.2343 70.4676 19.0149 69.9878 19.0149H62.4221L60.8339 21.6409L69.6493 50.877L71.2488 48.2621V36.0804L75.6825 43.4006C75.8573 43.7279 76.1438 43.9548 76.512 44.059C76.7463 44.1259 76.9769 44.1631 77.1964 44.1631C77.3935 44.1631 77.6056 44.1296 77.8399 44.0627C78.2044 43.9585 78.104 41.3065 78.2788 40.9866L83.1069 36.0841L90.3303 50.877L93.8267 48.2733V19L84.3269 19.0112Z" fill="#910740"/>
<path d="M68.3841 22.4221C68.3321 22.6043 66.5057 21.9869 66.4462 22.1654C66.3607 23.4747 66.2714 24.7877 66.1338 26.0933C65.9776 27.5365 65.9738 28.9872 66.1449 30.4266C66.3235 31.6132 66.6211 32.7774 67.0674 33.8896C67.4133 34.667 67.8336 35.4109 68.3358 36.0953C68.4771 36.2701 68.6259 36.4375 68.7821 36.6012C69.0351 36.3892 69.314 36.2069 69.6265 36.0693C70.1696 35.8275 70.6159 35.7048 71.2036 35.6304C71.6239 35.5783 72.0405 35.6229 72.4571 35.7048C73.2122 35.8535 73.9152 36.2776 74.4843 36.7834C74.9269 37.1777 75.2914 37.6947 75.5481 38.2267C75.8308 38.8143 76.0242 39.4132 76.1841 40.0269C76.7123 39.9042 77.2256 39.7368 77.7315 39.5359C78.9478 38.9966 80.0711 38.2936 81.1387 37.505C80.9415 35.8238 80.8002 34.1425 80.7183 32.4501C80.6216 30.4973 80.6588 28.4664 81.2354 26.5806C81.3879 26.0821 81.7338 25.6767 82.2099 25.4796C82.1243 25.4684 82.0351 25.4498 81.9458 25.4201C81.5292 25.2936 81.2019 25.0444 80.9713 24.7245C80.5472 25.1151 80.0711 25.4312 79.5244 25.5986L77.1587 29.5228L71.2743 19.7067L71.2482 19.6658L71.2185 19.6286C70.9023 19.2232 70.6457 19.067 70.4969 19.253C69.9092 20.0043 68.6334 21.5703 68.3841 22.4221Z" fill="#B21F54"/>
<path d="M93.8263 48.2733L90.3298 50.877V21.6037L93.8263 19V48.2733Z" fill="#B21F54"/>
<path d="M71.2483 48.2732L69.6489 50.877L69.2397 38.1931L71.2483 37.9327V48.2732Z" fill="#910740"/>
<path d="M82.2992 50.0735V35.8498L76.3813 45.6174C76.3106 45.7588 76.1916 45.8555 76.0242 45.9038C75.8568 45.9522 75.7155 45.9745 75.5964 45.9745C75.4551 45.9745 75.2989 45.9522 75.1315 45.9038C74.9641 45.8555 74.8451 45.7625 74.7744 45.6174L68.8565 35.8498V50.0772H61.6182V22.4071H68.3916C68.6296 22.4071 68.8305 22.515 68.9979 22.727L75.5592 33.6738L82.1541 22.727C82.3215 22.5113 82.5112 22.4071 82.7232 22.4071H89.5338V50.0735H82.2992Z" fill="#FF98A7"/>
<path d="M90.3298 50.8659H81.5069V38.6842L77.0732 46.0044C76.902 46.3242 76.6082 46.5586 76.2437 46.6627C76.0056 46.7297 75.7936 46.7632 75.6002 46.7632C75.3807 46.7632 75.1538 46.7297 74.9158 46.659C74.5475 46.5549 74.2611 46.328 74.0863 46.0006L69.6488 38.6842V50.8659H60.8259V21.6149H68.3916C68.8714 21.6149 69.3066 21.8381 69.6228 22.2398L69.6525 22.277L69.6786 22.3179L75.563 32.134L81.5032 22.277L81.533 22.2398C81.9347 21.7228 82.4071 21.6112 82.7307 21.6112H90.3298V50.8659ZM83.0915 49.2813H88.7453V23.1995H82.7976L75.5593 35.2138L68.3581 23.1995H62.4105V49.2813H68.0643V33.0118L75.4254 45.16C75.4886 45.1749 75.5481 45.1823 75.5965 45.1823C75.6039 45.1823 75.6485 45.1823 75.7304 45.16L83.0915 33.0118V49.2813Z" fill="#DA0057"/>
<path d="M88.7453 49.2813V49.0507C88.6225 49.1065 88.4849 49.14 88.3398 49.14C87.8005 49.14 87.3653 48.7048 87.3653 48.1654C87.3653 47.6261 87.8005 47.1909 88.3398 47.1909C88.4849 47.1909 88.6225 47.2207 88.7453 47.2802V42.6567C88.6225 42.7125 88.4849 42.746 88.3398 42.746C87.8005 42.746 87.3653 42.3108 87.3653 41.7714C87.3653 41.2321 87.8005 40.7969 88.3398 40.7969C88.4849 40.7969 88.6225 40.8267 88.7453 40.8862V36.259C88.6225 36.3148 88.4849 36.3483 88.3398 36.3483C87.8005 36.3483 87.3653 35.9131 87.3653 35.3737C87.3653 34.8344 87.8005 34.3992 88.3398 34.3992C88.4849 34.3992 88.6225 34.4289 88.7453 34.4885V29.8687C88.6225 29.9245 88.4849 29.958 88.3398 29.958C87.8005 29.958 87.3653 29.5228 87.3653 28.9834C87.3653 28.4441 87.8005 28.0089 88.3398 28.0089C88.4849 28.0089 88.6225 28.0387 88.7453 28.0982V23.471C88.6225 23.5268 88.4849 23.5603 88.3398 23.5603C88.0348 23.5603 87.7633 23.4189 87.5848 23.1995H82.7976L75.987 34.5033C76.3069 34.6633 76.5264 34.9943 76.5264 35.3737C76.5264 35.9131 76.0912 36.3483 75.5518 36.3483C75.0125 36.3483 74.5773 35.9131 74.5773 35.3737C74.5773 34.9869 74.8042 34.6521 75.1315 34.4959L68.3618 23.1995H63.5189C63.3404 23.4189 63.0688 23.5603 62.7638 23.5603C62.6411 23.5603 62.5221 23.5379 62.4142 23.497V28.0721C62.5221 28.0312 62.6411 28.0089 62.7638 28.0089C63.3032 28.0089 63.7384 28.4441 63.7384 28.9834C63.7384 29.5228 63.3032 29.958 62.7638 29.958C62.6411 29.958 62.5221 29.9357 62.4142 29.8947V34.4699C62.5221 34.4289 62.6411 34.4066 62.7638 34.4066C63.3032 34.4066 63.7384 34.8418 63.7384 35.3812C63.7384 35.9205 63.3032 36.3557 62.7638 36.3557C62.6411 36.3557 62.5221 36.3334 62.4142 36.2925V40.8676C62.5221 40.8267 62.6411 40.8043 62.7638 40.8043C63.3032 40.8043 63.7384 41.2395 63.7384 41.7789C63.7384 42.3182 63.3032 42.7534 62.7638 42.7534C62.6411 42.7534 62.5221 42.7311 62.4142 42.6902V47.2653C62.5221 47.2244 62.6411 47.2021 62.7638 47.2021C63.3032 47.2021 63.7384 47.6373 63.7384 48.1766C63.7384 48.7159 63.3032 49.1511 62.7638 49.1511C62.6411 49.1511 62.5221 49.1288 62.4142 49.0879V49.2962H68.068V33.0267L68.9235 34.4401C68.9979 34.4215 69.076 34.4103 69.1578 34.4103C69.6972 34.4103 70.1324 34.8455 70.1324 35.3849C70.1324 35.6304 70.0394 35.8573 69.8869 36.0284L71.3226 38.3978C71.371 37.9031 71.7876 37.5162 72.2935 37.5162C72.8328 37.5162 73.268 37.9514 73.268 38.4907C73.268 39.0301 72.8328 39.4653 72.2935 39.4653C72.1633 39.4653 72.0405 39.4392 71.9289 39.3946L75.4291 45.1712C75.4923 45.186 75.5518 45.1935 75.6002 45.1935C75.6076 45.1935 75.6523 45.1935 75.7341 45.1712L79.2863 39.3091C79.1338 39.4095 78.9516 39.4653 78.7544 39.4653C78.2151 39.4653 77.7799 39.0301 77.7799 38.4907C77.7799 37.9514 78.2151 37.5162 78.7544 37.5162C79.2938 37.5162 79.7289 37.9514 79.7289 38.4907C79.7289 38.5205 79.7289 38.554 79.7252 38.5837L81.2503 36.0656C81.0792 35.8907 80.9713 35.649 80.9713 35.3849C80.9713 34.8455 81.4065 34.4103 81.9458 34.4103C82.0425 34.4103 82.1392 34.4252 82.2285 34.4513L83.0952 33.0229V49.2925H88.7453V49.2813ZM65.9627 45.837C65.4233 45.837 64.9881 45.4018 64.9881 44.8624C64.9881 44.3231 65.4233 43.8879 65.9627 43.8879C66.502 43.8879 66.9372 44.3231 66.9372 44.8624C66.9372 45.4018 66.502 45.837 65.9627 45.837ZM65.9627 39.4541C65.4233 39.4541 64.9881 39.0189 64.9881 38.4796C64.9881 37.9402 65.4233 37.5051 65.9627 37.5051C66.502 37.5051 66.9372 37.9402 66.9372 38.4796C66.9372 39.0189 66.502 39.4541 65.9627 39.4541ZM65.9627 33.049C65.4233 33.049 64.9881 32.6138 64.9881 32.0744C64.9881 31.5351 65.4233 31.0999 65.9627 31.0999C66.502 31.0999 66.9372 31.5351 66.9372 32.0744C66.9372 32.6101 66.502 33.049 65.9627 33.049ZM65.9627 26.6661C65.4233 26.6661 64.9881 26.2309 64.9881 25.6916C64.9881 25.1523 65.4233 24.7171 65.9627 24.7171C66.502 24.7171 66.9372 25.1523 66.9372 25.6916C66.9372 26.2272 66.502 26.6661 65.9627 26.6661ZM69.1578 29.9543C68.6185 29.9543 68.1833 29.5191 68.1833 28.9797C68.1833 28.4404 68.6185 28.0052 69.1578 28.0052C69.6972 28.0052 70.1324 28.4404 70.1324 28.9797C70.1324 29.5153 69.6935 29.9543 69.1578 29.9543ZM72.2935 33.049C71.7541 33.049 71.3189 32.6138 71.3189 32.0744C71.3189 31.5351 71.7541 31.0999 72.2935 31.0999C72.8328 31.0999 73.268 31.5351 73.268 32.0744C73.268 32.6101 72.8291 33.049 72.2935 33.049ZM75.5518 42.7423C75.0125 42.7423 74.5773 42.3071 74.5773 41.7677C74.5773 41.2284 75.0125 40.7932 75.5518 40.7932C76.0912 40.7932 76.5264 41.2284 76.5264 41.7677C76.5264 42.3071 76.0912 42.7423 75.5518 42.7423ZM78.7507 33.049C78.2113 33.049 77.7762 32.6138 77.7762 32.0744C77.7762 31.5351 78.2113 31.0999 78.7507 31.0999C79.29 31.0999 79.7252 31.5351 79.7252 32.0744C79.7252 32.6101 79.29 33.049 78.7507 33.049ZM81.9458 29.9543C81.4065 29.9543 80.9713 29.5191 80.9713 28.9797C80.9713 28.4404 81.4065 28.0052 81.9458 28.0052C82.4852 28.0052 82.9204 28.4404 82.9204 28.9797C82.9204 29.5153 82.4852 29.9543 81.9458 29.9543ZM85.0815 24.7171C85.6208 24.7171 86.056 25.1523 86.056 25.6916C86.056 26.2309 85.6208 26.6661 85.0815 26.6661C84.5421 26.6661 84.1069 26.2309 84.1069 25.6916C84.1069 25.1523 84.5421 24.7171 85.0815 24.7171ZM85.0815 31.0962C85.6208 31.0962 86.056 31.5314 86.056 32.0707C86.056 32.6101 85.6208 33.0452 85.0815 33.0452C84.5421 33.0452 84.1069 32.6101 84.1069 32.0707C84.1069 31.5351 84.5421 31.0962 85.0815 31.0962ZM85.0815 37.5051C85.6208 37.5051 86.056 37.9402 86.056 38.4796C86.056 39.0189 85.6208 39.4541 85.0815 39.4541C84.5421 39.4541 84.1069 39.0189 84.1069 38.4796C84.1069 37.9402 84.5421 37.5051 85.0815 37.5051ZM85.0815 43.8879C85.6208 43.8879 86.056 44.3231 86.056 44.8624C86.056 45.4018 85.6208 45.837 85.0815 45.837C84.5421 45.837 84.1069 45.4018 84.1069 44.8624C84.1069 44.3231 84.5421 43.8879 85.0815 43.8879Z" fill="#F7416C"/>
<path d="M68.3983 14.8861C68.3983 17.1299 67.1951 18.9511 65.6991 18.9511C64.2032 18.9511 63 17.1299 63 14.8861C63 12.6422 65.6341 9 65.6341 9C65.6341 9 68.3983 12.6422 68.3983 14.8861Z" fill="#FF8170"/>
<path d="M67.6503 15.634C67.6503 17.1624 66.7723 18.4307 65.6991 18.4307C64.626 18.4307 63.7479 17.1949 63.7479 15.634C63.7479 14.1055 65.6991 10.9836 65.6991 10.9836C65.6991 10.9836 67.6503 14.1055 67.6503 15.634Z" fill="#FF9B70"/>
<path d="M66.2845 19.3087C66.0243 18.5282 66.2519 17.8453 66.1544 17.0648C66.0893 16.512 65.2764 16.4795 65.2764 17.0648C65.2764 17.7152 65.7641 18.3656 65.6666 19.0486C65.569 19.6339 65.6016 20.2193 65.6016 20.8371C65.6016 21.3249 66.382 21.3249 66.382 20.8371C66.3495 20.3168 66.4146 19.764 66.2845 19.3087Z" fill="#593A38"/>
<path opacity="0.6" d="M66.935 16.9023C66.935 17.6177 66.3821 18.1705 65.6667 18.1705C64.9513 18.1705 64.3984 17.6177 64.3984 16.9023C64.3984 16.1868 64.9513 14.0405 65.6342 14.0405C66.3171 14.0405 66.935 16.1868 66.935 16.9023Z" fill="#FFCF90"/>
<path d="M91.3983 13.8861C91.3983 16.1299 90.1951 17.9511 88.6991 17.9511C87.2032 17.9511 86 16.1299 86 13.8861C86 11.6422 88.6341 8 88.6341 8C88.6341 8 91.3983 11.6422 91.3983 13.8861Z" fill="#FF8170"/>
<path d="M90.6503 14.634C90.6503 16.1624 89.7723 17.4307 88.6991 17.4307C87.626 17.4307 86.7479 16.1949 86.7479 14.634C86.7479 13.1055 88.6991 9.98364 88.6991 9.98364C88.6991 9.98364 90.6503 13.1055 90.6503 14.634Z" fill="#FF9B70"/>
<path d="M89.2845 18.3087C89.0243 17.5282 89.2519 16.8453 89.1544 16.0648C89.0893 15.512 88.2764 15.4795 88.2764 16.0648C88.2764 16.7152 88.7641 17.3656 88.6666 18.0486C88.569 18.6339 88.6016 19.2193 88.6016 19.8371C88.6016 20.3249 89.382 20.3249 89.382 19.8371C89.3495 19.3168 89.4146 18.764 89.2845 18.3087Z" fill="#593A38"/>
<path opacity="0.6" d="M89.935 15.9023C89.935 16.6177 89.3821 17.1705 88.6667 17.1705C87.9513 17.1705 87.3984 16.6177 87.3984 15.9023C87.3984 15.1868 87.9513 13.0405 88.6342 13.0405C89.3171 13.0405 89.935 15.1868 89.935 15.9023Z" fill="#FFCF90"/>
<path d="M23.6774 56.2197C23.6774 56.2197 26.6065 53.9667 28.7824 56.0897C28.1965 57.6062 25.5604 58.6461 23.6774 56.2197Z" fill="#F9B2AC"/>
<path d="M22.2546 59.426C21.7106 58.7761 21.4596 56.6964 23.6773 56.1331C25.5603 55.6998 25.3511 55.7865 25.8532 55.0066C26.188 54.4867 26.439 54.79 26.439 54.79C26.439 54.79 26.6064 57.3463 24.9326 57.8229C23.5099 58.2129 23.9284 61.2891 22.2546 59.426Z" fill="#FFEAE9"/>
<path d="M26.3555 54.7466C26.3555 54.7466 27.3179 56.0464 27.82 55.9598C28.364 55.8731 30.1214 55.9164 30.4144 57.7362C28.8243 58.8194 26.5647 56.8696 26.3555 54.7466Z" fill="#FFEAE9"/>
<path d="M26.3555 54.7466C26.3555 54.7466 27.6526 56.3497 28.8661 56.5664C30.6236 56.913 31.2094 58.7761 30.4144 59.7293C29.6612 60.6391 28.2803 60.5525 28.0711 60.3359C27.9037 60.0759 26.5228 56.0897 26.3555 54.7466Z" fill="white"/>
<path d="M26.3555 54.7466C26.3555 54.7466 27.3179 56.4364 28.5732 56.6963C30.3307 57.043 31.3349 58.6461 30.4562 59.7293C29.703 60.6391 28.3221 60.5525 28.1129 60.3359C27.9037 60.0759 26.5228 56.0897 26.3555 54.7466Z" fill="#FFC5C2"/>
<path d="M26.3554 54.7466C26.3554 54.7466 27.4015 57.2163 27.0249 58.2128C26.6483 59.2093 27.0249 60.5092 25.6859 60.8125C24.3469 61.1158 22.6731 60.4225 22.4639 59.3827C22.2546 58.2995 23.0497 57.6929 24.2213 57.2596C25.5603 56.7397 25.9369 55.4832 26.3554 54.7466Z" fill="white"/>
<path d="M26.3555 54.7466C26.3555 54.7466 27.4016 57.2163 27.025 58.2128C26.6484 59.2093 27.025 60.5092 25.686 60.8125C24.3469 61.1158 22.6732 60.4225 22.4639 59.3827C22.2547 58.2995 23.3427 57.5629 24.5562 57.3896C25.7696 57.2163 25.937 55.4832 26.3555 54.7466Z" fill="#FFC5C2"/>
<path d="M26.3554 54.7466C26.3554 54.7466 26.7738 57.0863 26.0625 58.2128C25.3511 59.3393 25.3511 60.5958 26.6901 60.9425C28.0292 61.2891 29.0753 60.6392 28.9497 59.686C28.7823 57.6495 26.5228 56.0031 26.3554 54.7466Z" fill="white"/>
<path d="M26.3555 54.7466C26.3555 54.7466 26.9413 57.043 26.1881 58.1695C25.4767 59.296 25.3094 60.5958 26.6484 60.9425C27.9874 61.2891 28.7824 60.5958 28.6569 59.5993C28.5314 57.5629 26.5229 56.0031 26.3555 54.7466Z" fill="#F9B2AC"/>
<path d="M55.2738 62.8784C55.2738 62.8784 57.4803 61.1812 59.1193 62.7805C58.678 63.9228 56.6922 64.7062 55.2738 62.8784Z" fill="#F9B2AC"/>
<path d="M54.2022 65.2936C53.7924 64.8041 53.6033 63.2374 55.2739 62.8131C56.6923 62.4868 56.5347 62.552 56.9129 61.9645C57.1651 61.5729 57.3542 61.8013 57.3542 61.8013C57.3542 61.8013 57.4803 63.727 56.2195 64.086C55.1478 64.3798 55.463 66.6971 54.2022 65.2936Z" fill="#FFEAE9"/>
<path d="M57.2913 61.7687C57.2913 61.7687 58.0162 62.7478 58.3945 62.6826C58.8043 62.6173 60.1281 62.6499 60.3488 64.0207C59.151 64.8367 57.4489 63.3679 57.2913 61.7687Z" fill="#FFEAE9"/>
<path d="M57.2913 61.7687C57.2913 61.7687 58.2684 62.9763 59.1825 63.1395C60.5064 63.4006 60.9476 64.804 60.3488 65.5221C59.7814 66.2075 58.7412 66.1422 58.5836 65.979C58.4575 65.7832 57.4173 62.7805 57.2913 61.7687Z" fill="white"/>
<path d="M57.2913 61.7687C57.2913 61.7687 58.0162 63.0416 58.9618 63.2374C60.2857 63.4985 61.0422 64.7061 60.3803 65.5221C59.8129 66.2075 58.7727 66.1422 58.6151 65.979C58.4575 65.7832 57.4173 62.7805 57.2913 61.7687Z" fill="#FFC5C2"/>
<path d="M57.2911 61.7687C57.2911 61.7687 58.0791 63.629 57.7954 64.3797C57.5117 65.1304 57.7954 66.1095 56.7868 66.338C55.7781 66.5665 54.5173 66.0443 54.3597 65.261C54.2021 64.445 54.801 63.9881 55.6835 63.6617C56.6922 63.27 56.9759 62.3235 57.2911 61.7687Z" fill="white"/>
<path d="M57.2912 61.7687C57.2912 61.7687 58.0792 63.629 57.7955 64.3797C57.5118 65.1304 57.7955 66.1095 56.7869 66.338C55.7782 66.5665 54.5174 66.0443 54.3598 65.261C54.2022 64.445 55.0217 63.8902 55.9358 63.7596C56.8499 63.6291 56.976 62.3235 57.2912 61.7687Z" fill="#FFC5C2"/>
<path d="M57.2911 61.7687C57.2911 61.7687 57.6063 63.5311 57.0704 64.3797C56.5346 65.2283 56.5346 66.1748 57.5433 66.4359C58.5519 66.697 59.3399 66.2075 59.2454 65.4894C59.1193 63.9554 57.4172 62.7152 57.2911 61.7687Z" fill="white"/>
<path d="M57.2913 61.7687C57.2913 61.7687 57.7325 63.4985 57.1652 64.3471C56.6293 65.1957 56.5032 66.1748 57.5119 66.4359C58.5206 66.697 59.1195 66.1748 59.0249 65.4242C58.9303 63.8902 57.4173 62.7152 57.2913 61.7687Z" fill="#F9B2AC"/>
<path d="M74.8103 51.1566C74.8103 51.1566 77.0168 49.4594 78.6558 51.0587C78.2145 52.201 76.2287 52.9843 74.8103 51.1566Z" fill="#F9B2AC"/>
<path d="M73.7385 53.5717C73.3288 53.0821 73.1397 51.5155 74.8102 51.0912C76.2287 50.7648 76.0711 50.8301 76.4493 50.2426C76.7015 49.851 76.8906 50.0794 76.8906 50.0794C76.8906 50.0794 77.0167 52.0051 75.7559 52.3641C74.6842 52.6578 74.9994 54.9751 73.7385 53.5717Z" fill="#FFEAE9"/>
<path d="M76.8276 50.0468C76.8276 50.0468 77.5526 51.0259 77.9309 50.9606C78.3406 50.8954 79.6645 50.928 79.8851 52.2988C78.6873 53.1147 76.9852 51.646 76.8276 50.0468Z" fill="#FFEAE9"/>
<path d="M76.8276 50.0468C76.8276 50.0468 77.8048 51.2544 78.7189 51.4176C80.0427 51.6787 80.484 53.0821 79.8851 53.8001C79.3178 54.4855 78.2776 54.4203 78.12 54.2571C77.9939 54.0612 76.9537 51.0585 76.8276 50.0468Z" fill="white"/>
<path d="M76.8276 50.0468C76.8276 50.0468 77.5526 51.3196 78.4982 51.5155C79.8221 51.7766 80.5786 52.9842 79.9167 53.8001C79.3493 54.4855 78.3091 54.4203 78.1515 54.2571C77.9939 54.0612 76.9537 51.0585 76.8276 50.0468Z" fill="#FFC5C2"/>
<path d="M76.8276 50.0468C76.8276 50.0468 77.6156 51.9071 77.3319 52.6578C77.0482 53.4085 77.3319 54.3876 76.3233 54.6161C75.3146 54.8446 74.0538 54.3224 73.8962 53.539C73.7386 52.7231 74.3375 52.2662 75.22 51.9398C76.2287 51.5481 76.5124 50.6016 76.8276 50.0468Z" fill="white"/>
<path d="M76.8277 50.0468C76.8277 50.0468 77.6157 51.9071 77.332 52.6578C77.0483 53.4085 77.332 54.3876 76.3234 54.6161C75.3147 54.8446 74.0539 54.3224 73.8963 53.539C73.7387 52.7231 74.5582 52.1682 75.4723 52.0377C76.3864 51.9071 76.5125 50.6016 76.8277 50.0468Z" fill="#FFC5C2"/>
<path d="M76.8276 50.0468C76.8276 50.0468 77.1428 51.8092 76.6069 52.6578C76.0711 53.5064 76.0711 54.4529 77.0798 54.714C78.0884 54.9751 78.8764 54.4855 78.7819 53.7675C78.6558 52.2335 76.9537 50.9933 76.8276 50.0468Z" fill="white"/>
<path d="M76.8276 50.0468C76.8276 50.0468 77.2689 51.7766 76.7015 52.6252C76.1657 53.4738 76.0396 54.4529 77.0483 54.714C78.0569 54.9751 78.6558 54.4529 78.5613 53.7022C78.4667 52.1682 76.9537 50.9933 76.8276 50.0468Z" fill="#F9B2AC"/>
<path d="M44.3335 51.1566C44.3335 51.1566 46.5399 49.4594 48.179 51.0587C47.7377 52.201 45.7519 52.9843 44.3335 51.1566Z" fill="#F9B2AC"/>
<path d="M43.2617 53.5717C42.852 53.0821 42.6628 51.5155 44.3334 51.0912C45.7519 50.7648 45.5943 50.8301 45.9725 50.2426C46.2247 49.851 46.4138 50.0794 46.4138 50.0794C46.4138 50.0794 46.5399 52.0051 45.2791 52.3641C44.2074 52.6578 44.5226 54.9751 43.2617 53.5717Z" fill="#FFEAE9"/>
<path d="M46.3508 50.0468C46.3508 50.0468 47.0758 51.0259 47.4541 50.9606C47.8638 50.8954 49.1877 50.928 49.4083 52.2988C48.2105 53.1147 46.5084 51.646 46.3508 50.0468Z" fill="#FFEAE9"/>
<path d="M46.3508 50.0468C46.3508 50.0468 47.328 51.2544 48.2421 51.4176C49.5659 51.6787 50.0072 53.0821 49.4083 53.8001C48.841 54.4855 47.8008 54.4203 47.6432 54.2571C47.5171 54.0612 46.4769 51.0585 46.3508 50.0468Z" fill="white"/>
<path d="M46.3508 50.0468C46.3508 50.0468 47.0758 51.3196 48.0214 51.5155C49.3453 51.7766 50.1018 52.9842 49.4398 53.8001C48.8725 54.4855 47.8323 54.4203 47.6747 54.2571C47.5171 54.0612 46.4769 51.0585 46.3508 50.0468Z" fill="#FFC5C2"/>
<path d="M46.3508 50.0468C46.3508 50.0468 47.1388 51.9071 46.8551 52.6578C46.5714 53.4085 46.8551 54.3876 45.8464 54.6161C44.8378 54.8446 43.577 54.3224 43.4194 53.539C43.2617 52.7231 43.8606 52.2662 44.7432 51.9398C45.7519 51.5481 46.0356 50.6016 46.3508 50.0468Z" fill="white"/>
<path d="M46.3509 50.0468C46.3509 50.0468 47.1389 51.9071 46.8552 52.6578C46.5715 53.4085 46.8552 54.3876 45.8465 54.6161C44.8379 54.8446 43.5771 54.3224 43.4195 53.539C43.2619 52.7231 44.0814 52.1682 44.9955 52.0377C45.9096 51.9071 46.0357 50.6016 46.3509 50.0468Z" fill="#FFC5C2"/>
<path d="M46.3508 50.0468C46.3508 50.0468 46.666 51.8092 46.1301 52.6578C45.5943 53.5064 45.5943 54.4529 46.6029 54.714C47.6116 54.9751 48.3996 54.4855 48.3051 53.7675C48.179 52.2335 46.4769 50.9933 46.3508 50.0468Z" fill="white"/>
<path d="M46.3508 50.0468C46.3508 50.0468 46.7921 51.7766 46.2247 52.6252C45.6889 53.4738 45.5628 54.4529 46.5715 54.714C47.5801 54.9751 48.179 54.4529 48.0845 53.7022C47.9899 52.1682 46.4769 50.9933 46.3508 50.0468Z" fill="#F9B2AC"/>
<path d="M92.5621 54.0952C92.5621 54.0952 94.4073 52.676 95.7779 54.0133C95.4089 54.9686 93.7483 55.6236 92.5621 54.0952Z" fill="#F9B2AC"/>
<path d="M91.6659 56.1148C91.3233 55.7054 91.1651 54.3953 92.5621 54.0405C93.7483 53.7676 93.6165 53.8222 93.9328 53.3309C94.1437 53.0034 94.3018 53.1944 94.3018 53.1944C94.3018 53.1944 94.4073 54.8047 93.3529 55.105C92.4567 55.3506 92.7203 57.2884 91.6659 56.1148Z" fill="#FFEAE9"/>
<path d="M94.2491 53.1671C94.2491 53.1671 94.8554 53.9859 95.1717 53.9313C95.5144 53.8767 96.6214 53.904 96.8059 55.0504C95.8043 55.7327 94.3809 54.5045 94.2491 53.1671Z" fill="#FFEAE9"/>
<path d="M94.2491 53.1671C94.2491 53.1671 95.0663 54.177 95.8307 54.3134C96.9377 54.5318 97.3068 55.7054 96.8059 56.3058C96.3315 56.879 95.4616 56.8244 95.3299 56.688C95.2244 56.5242 94.3546 54.0132 94.2491 53.1671Z" fill="white"/>
<path d="M94.2491 53.1671C94.2491 53.1671 94.8554 54.2316 95.6462 54.3953C96.7532 54.6137 97.3858 55.6235 96.8323 56.3058C96.3579 56.879 95.488 56.8244 95.3562 56.688C95.2244 56.5242 94.3546 54.0132 94.2491 53.1671Z" fill="#FFC5C2"/>
<path d="M94.2491 53.1671C94.2491 53.1671 94.908 54.7228 94.6708 55.3506C94.4336 55.9783 94.6708 56.7971 93.8273 56.9882C92.9838 57.1792 91.9295 56.7425 91.7977 56.0875C91.6659 55.4052 92.1667 55.0231 92.9047 54.7501C93.7482 54.4226 93.9855 53.6311 94.2491 53.1671Z" fill="white"/>
<path d="M94.2491 53.1671C94.2491 53.1671 94.9081 54.7228 94.6708 55.3506C94.4336 55.9783 94.6708 56.7971 93.8274 56.9882C92.9839 57.1792 91.9295 56.7425 91.7977 56.0875C91.6659 55.4052 92.3513 54.9412 93.1157 54.832C93.8801 54.7228 93.9855 53.6311 94.2491 53.1671Z" fill="#FFC5C2"/>
<path d="M94.2491 53.1671C94.2491 53.1671 94.5126 54.641 94.0645 55.3506C93.6164 56.0602 93.6164 56.8517 94.4599 57.0701C95.3034 57.2884 95.9624 56.879 95.8833 56.2786C95.7779 54.9958 94.3545 53.9586 94.2491 53.1671Z" fill="white"/>
<path d="M94.2492 53.1671C94.2492 53.1671 94.6182 54.6137 94.1437 55.3233C93.6956 56.0329 93.5902 56.8517 94.4337 57.0701C95.2772 57.2884 95.778 56.8517 95.6989 56.224C95.6199 54.9412 94.3546 53.9586 94.2492 53.1671Z" fill="#F9B2AC"/>
<path d="M83.609 57.4582C83.609 57.4582 87.42 54.5268 90.3054 57.2891C89.4888 59.2621 86.0589 60.6151 83.609 57.4582Z" fill="#F9B2AC"/>
<path d="M81.7579 61.6297C81.0502 60.8405 80.7235 58.0782 83.609 57.3454C86.0589 56.7816 85.8411 56.8944 86.44 55.8797C86.8755 55.2032 87.2022 55.5978 87.2022 55.5978C87.2022 55.5978 87.4199 58.9238 85.2422 59.5439C83.3912 60.0512 83.9356 64.0537 81.7579 61.6297Z" fill="#FFEAE9"/>
<path d="M87.0934 55.5415C87.0934 55.5415 88.3456 57.2327 88.9989 57.1199C89.7066 57.0072 91.9932 57.0636 92.3743 59.4312C90.3055 60.8405 87.3656 58.3038 87.0934 55.5415Z" fill="#FFEAE9"/>
<path d="M87.0934 55.5415C87.0934 55.5415 88.7811 57.6273 90.3599 57.9091C92.6465 58.3601 93.4087 60.7841 92.3743 62.0243C91.3943 63.2082 89.5977 63.0954 89.3255 62.8136C89.1078 62.5317 87.3112 57.3454 87.0934 55.5415Z" fill="white"/>
<path d="M87.0934 55.5415C87.0934 55.5415 88.3456 57.74 89.9788 58.0783C92.2654 58.5292 93.572 60.615 92.4287 62.0243C91.4488 63.2082 89.6522 63.0954 89.38 62.8136C89.1078 62.5317 87.3112 57.3454 87.0934 55.5415Z" fill="#FFC5C2"/>
<path d="M87.0933 55.5415C87.0933 55.5415 88.4544 58.7547 87.9644 60.0513C87.4744 61.3479 87.9644 63.0391 86.2223 63.4337C84.4801 63.8283 82.3024 62.9263 82.0302 61.5734C81.758 60.164 82.7924 59.3748 84.3168 58.8111C86.0589 58.191 86.5489 56.4998 87.0933 55.5415Z" fill="white"/>
<path d="M87.0933 55.5415C87.0933 55.5415 88.4543 58.7547 87.9643 60.0513C87.4744 61.3479 87.9643 63.0391 86.2222 63.4337C84.48 63.8283 82.3023 62.9263 82.0301 61.5734C81.7579 60.164 83.1734 59.2057 84.7522 58.9802C86.3311 58.8111 86.5488 56.4998 87.0933 55.5415Z" fill="#FFC5C2"/>
<path d="M87.0933 55.5415C87.0933 55.5415 87.6377 58.5856 86.7122 60.0513C85.7867 61.517 85.7867 63.1518 87.5288 63.6028C89.271 64.0537 90.6321 63.2082 90.4687 61.968C90.251 59.3185 87.3655 57.1763 87.0933 55.5415Z" fill="white"/>
<path d="M87.0933 55.5415C87.0933 55.5415 87.8555 58.5292 86.8755 59.9949C85.95 61.4606 85.7323 63.1518 87.4744 63.6028C89.2166 64.0538 90.3598 63.1518 90.251 61.9116C90.0332 59.2621 87.3655 57.1763 87.0933 55.5415Z" fill="#F9B2AC"/>
<path d="M35.132 58.2988C35.132 58.2988 40.5653 54.1195 44.6792 58.0577C43.5149 60.8707 38.6249 62.7193 35.132 58.2988Z" fill="#F9B2AC"/>
<path d="M32.4928 64.2463C31.4838 63.1211 31.0181 59.1829 35.1319 58.138C38.6248 57.3343 38.3143 57.4951 39.1682 56.0484C39.7891 55.0839 40.2548 55.6465 40.2548 55.6465C40.2548 55.6465 40.5653 60.3885 37.4605 61.2725C34.8215 61.9959 35.5976 67.7023 32.4928 64.2463Z" fill="#FFEAE9"/>
<path d="M40.0995 55.5662C40.0995 55.5662 41.8847 57.9773 42.8162 57.8166C43.8252 57.7362 47.0853 57.7362 47.6286 61.1118C44.679 63.1211 40.4876 59.5044 40.0995 55.5662Z" fill="#FFEAE9"/>
<path d="M40.0995 55.5662C40.0995 55.5662 42.5057 58.5399 44.7567 58.9418C48.0167 59.5848 49.1034 63.0407 47.6286 64.8089C46.2314 66.4967 43.67 66.336 43.2819 65.9341C42.9714 65.4519 40.41 58.0577 40.0995 55.5662Z" fill="white"/>
<path d="M40.0995 55.5662C40.0995 55.5662 41.8847 58.7007 44.2133 59.1829C47.4734 59.8259 49.3362 62.7996 47.7062 64.8089C46.3091 66.5771 43.7476 66.336 43.3595 65.9341C42.9714 65.4519 40.41 58.0577 40.0995 55.5662Z" fill="#FFC5C2"/>
<path d="M40.0997 55.5662C40.0997 55.5662 42.0402 60.1474 41.3416 61.9959C40.643 63.8445 41.3416 66.2556 38.8577 66.8182C36.3739 67.3808 33.2691 66.0949 32.881 64.1659C32.4929 62.1567 33.9677 61.0315 36.141 60.2277C38.6249 59.2633 39.3235 56.9325 40.0997 55.5662Z" fill="white"/>
<path d="M40.0996 55.5662C40.0996 55.5662 42.0401 60.1474 41.3415 61.9959C40.6429 63.8445 41.3415 66.2556 38.8577 66.8182C36.3738 67.3808 33.269 66.0949 32.8809 64.1659C32.4928 62.1567 34.5109 60.7903 36.7619 60.4688C39.0129 60.1474 39.3234 56.9325 40.0996 55.5662Z" fill="#FFC5C2"/>
<path d="M40.0996 55.5662C40.0996 55.5662 40.8758 59.9062 39.5563 61.9959C38.2368 64.0856 38.2368 66.4164 40.7206 67.0593C43.2044 67.6219 45.1449 66.4967 44.9121 64.7285C44.6016 60.9511 40.4101 57.8969 40.0996 55.5662Z" fill="white"/>
<path d="M40.0995 55.5662C40.0995 55.5662 41.1862 59.8259 39.7891 61.9155C38.4695 64.0052 38.159 66.4164 40.6429 67.0593C43.1267 67.6219 44.7567 66.4164 44.6015 64.5678C44.291 60.7903 40.41 57.8969 40.0995 55.5662Z" fill="#F9B2AC"/>
<path d="M49.3517 54.4395C49.3517 54.4395 53.3695 51.3491 56.4115 54.2612C55.5505 56.3413 51.9345 57.7677 49.3517 54.4395Z" fill="#F9B2AC"/>
<path d="M47.4003 58.8373C46.6541 58.0053 46.3098 55.0932 49.3518 54.3205C51.9346 53.7262 51.6476 53.8451 52.3364 52.7753C52.7956 52.0621 53.14 52.4782 53.14 52.4782C53.14 52.4782 53.3695 55.9846 51.0737 56.6384C49.1222 57.1732 49.6962 61.3929 47.4003 58.8373Z" fill="#FFEAE9"/>
<path d="M53.025 52.4783C53.025 52.4783 54.3451 54.2612 55.0339 54.1423C55.7801 54.0829 58.1907 54.0829 58.5925 56.579C56.4114 58.0054 53.312 55.331 53.025 52.4783Z" fill="#FFEAE9"/>
<path d="M53.025 52.4783C53.025 52.4783 54.8043 54.6772 56.4688 54.9744C58.8795 55.4498 59.683 58.0054 58.5925 59.3129C57.5594 60.5609 55.6653 60.4421 55.3783 60.1449C55.1487 59.7883 53.2546 54.3206 53.025 52.4783Z" fill="white"/>
<path d="M53.025 52.4783C53.025 52.4783 54.3452 54.7961 56.0671 55.1527C58.4777 55.6281 59.8552 57.8271 58.6499 59.3129C57.6168 60.6204 55.7227 60.4421 55.4357 60.1449C55.1487 59.7883 53.2546 54.3206 53.025 52.4783Z" fill="#FFC5C2"/>
<path d="M53.025 52.4783C53.025 52.4783 54.4599 55.8659 53.9433 57.2328C53.4268 58.5997 53.9433 60.3827 52.1066 60.7987C50.27 61.2147 47.9741 60.2638 47.6871 58.8374C47.4001 57.3516 48.4907 56.5196 50.0978 55.9253C51.9345 55.2121 52.451 53.4292 53.025 52.4783Z" fill="white"/>
<path d="M53.025 52.4783C53.025 52.4783 54.4599 55.8659 53.9433 57.2328C53.4268 58.5997 53.9433 60.3827 52.1066 60.7987C50.27 61.2147 47.9741 60.2638 47.6871 58.8374C47.4001 57.3516 48.8924 56.3413 50.5569 56.1036C52.2214 55.8659 52.451 53.4292 53.025 52.4783Z" fill="#FFC5C2"/>
<path d="M53.0251 52.4783C53.0251 52.4783 53.599 55.6876 52.6233 57.2328C51.6476 58.778 51.6476 60.5015 53.4842 60.977C55.3209 61.393 56.7558 60.5609 56.5837 59.2535C56.3541 56.4007 53.312 54.2018 53.0251 52.4783Z" fill="white"/>
<path d="M53.0252 52.4783C53.0252 52.4783 53.8287 55.6281 52.7956 57.1734C51.8198 58.7186 51.5902 60.5015 53.4269 60.977C55.2636 61.393 56.3542 60.5015 56.2394 59.194C56.0098 56.3413 53.3121 54.2018 53.0252 52.4783Z" fill="#F9B2AC"/>
<path d="M64.1813 56.5258C64.1813 56.5258 70.7173 51.4983 75.6661 56.2358C74.2655 59.6197 68.383 61.9401 64.1813 56.5258Z" fill="#F9B2AC"/>
<path d="M61.0064 63.6803C59.7926 62.3268 59.2323 57.5893 64.1811 56.3324C68.3829 55.3656 68.0094 55.559 69.0365 53.8187C69.7834 52.6585 70.3437 53.3353 70.3437 53.3353C70.3437 53.3353 70.7172 59.0396 66.9823 60.1031C63.7142 60.9732 64.7413 67.8377 61.0064 63.6803Z" fill="#FFEAE9"/>
<path d="M70.1569 53.3353C70.1569 53.3353 72.3044 56.2358 73.4249 56.0424C74.6387 55.8491 78.5604 55.9458 79.214 60.0064C75.5725 62.4235 70.6237 58.0728 70.1569 53.3353Z" fill="#FFEAE9"/>
<path d="M70.1569 53.3353C70.1569 53.3353 73.0514 56.9126 75.7592 57.396C79.6809 58.1695 80.9881 62.3268 79.214 64.4539C77.5333 66.4842 74.452 66.2908 73.9851 65.8074C73.6117 65.2273 70.5304 56.3325 70.1569 53.3353Z" fill="white"/>
<path d="M70.1569 53.3353C70.1569 53.3353 72.3044 57.106 75.1056 57.6861C79.0272 58.4595 81.2682 62.0368 79.3074 64.4539C77.6267 66.5809 74.5454 66.2908 74.0785 65.8074C73.6116 65.2273 70.5304 56.3325 70.1569 53.3353Z" fill="#FFC5C2"/>
<path d="M70.157 53.3353C70.157 53.3353 72.4913 58.8463 71.6509 61.07C70.8106 63.2937 71.6509 66.1942 68.663 66.8709C65.6751 67.5477 61.9402 66.0008 61.4733 63.6804C61.0064 61.2633 62.7805 59.9098 65.395 58.9429C68.3829 57.7827 69.2232 54.8823 70.157 53.3353Z" fill="white"/>
<path d="M70.1569 53.3353C70.1569 53.3353 72.4912 58.8463 71.6508 61.07C70.8105 63.2937 71.6508 66.1942 68.6629 66.8709C65.675 67.5477 61.9401 66.0008 61.4732 63.6804C61.0063 61.2633 63.434 60.1031 66.1418 59.233C68.7563 58.3628 69.2232 54.8823 70.1569 53.3353Z" fill="#FFC5C2"/>
<path d="M70.1568 53.3353C70.1568 53.3353 71.0905 58.5562 69.5032 61.07C67.9158 63.5837 67.9158 66.3875 70.9038 67.161C73.8917 67.8378 76.226 66.4842 75.9459 64.3572C75.479 59.7164 70.5303 56.1391 70.1568 53.3353Z" fill="white"/>
<path d="M70.157 53.3353C70.157 53.3353 71.7443 58.6529 70.157 61.1666C68.5697 63.6804 67.916 66.3875 70.904 67.161C73.8919 67.8378 75.666 66.4842 75.4792 64.3572C75.0124 59.7164 70.5305 56.1391 70.157 53.3353Z" fill="#F9B2AC"/>
<path d="M19.7776 83.9473C18.9456 88.1494 15.9728 90.0382 12.7099 89.7864C12.0006 89.7299 11.6768 89.6649 10.9416 89.5201L6.247 88.5939L8.96037 74.8609L13.6954 75.7944C14.4307 75.9392 14.7477 76.0041 15.4278 76.2226C18.539 77.2298 20.6096 79.7451 19.7776 83.9473ZM16.8631 83.4159C17.3985 80.7112 16.387 78.9196 14.4075 78.2584C13.9631 78.1106 13.5654 78.0108 12.9516 77.8879L11.2788 77.5552L9.41921 86.9714L11.0515 87.2968C11.6518 87.4127 12.0632 87.4992 12.516 87.5253C14.6173 87.6607 16.3129 86.2219 16.8631 83.4159Z" fill="#FF0066"/>
<path d="M31.9329 87.3367C31.5056 90.5771 29.206 92.7046 25.6415 92.2392C22.0838 91.774 20.4073 89.115 20.8277 85.8813C21.2553 82.6207 23.5547 80.5135 27.1192 80.9788C30.6837 81.4441 32.3605 84.0761 31.9329 87.3367ZM29.0571 86.9547C29.3575 84.6391 28.5316 83.1407 26.8642 82.9231C25.1967 82.7054 24.0108 83.9411 23.7037 86.2498C23.4036 88.5452 24.2292 90.0638 25.8967 90.2815C27.5642 90.4991 28.757 89.25 29.0571 86.9547Z" fill="#FF0066"/>
<path d="M45.7121 93.8038L42.557 93.5805L41.3053 85.2602L38.8883 93.3302L35.7129 93.1066L33.042 82.1036L36.1566 82.3197L37.4659 90.8909L39.8112 82.6171L43.1691 82.8498L44.4049 91.3525L46.872 83.0668L49.865 83.2745L45.7121 93.8038Z" fill="#FF0066"/>
<path d="M61.0486 88.0782L60.9496 94.163L58.1506 94.1201L58.2378 88.4206C58.2435 87.9744 58.2501 87.4673 58.2234 86.9192C58.1569 85.7822 57.5449 85.0034 56.1859 84.9791C54.827 84.9548 53.73 86.1172 53.6845 89.1191L53.6072 94.0478L50.8082 94.0049L50.9815 83.2145L53.7805 83.2574L53.7512 85.0017L54.6061 83.7347C55.384 83.197 56.1776 83.0112 57.212 83.0245C59.504 83.0609 60.8076 84.2206 60.9996 86.1098C61.0534 86.6582 61.0666 87.2061 61.0486 88.0782Z" fill="#FF0066"/>
<path d="M66.3596 90.4934C66.3676 90.9195 66.3775 91.2037 66.4008 91.488C66.4749 92.0367 66.7229 92.209 67.6706 92.1333L67.7133 94.0611C67.1646 94.1352 66.6165 94.1619 65.9941 94.1809C64.6142 94.2104 63.7347 93.7189 63.6445 92.3247C63.5967 91.8372 63.583 91.3299 63.5651 90.6196L63.3275 79.1814L66.1279 79.123L66.3596 90.4934Z" fill="#FF0066"/>
<path d="M79.8286 87.9897C80.0096 91.2515 78.1444 93.77 74.5578 93.9739C70.9711 94.1777 68.8301 91.8779 68.6491 88.6161C68.4616 85.334 70.3334 82.8291 73.9199 82.632C77.5065 82.4349 79.6477 84.7144 79.8286 87.9897ZM76.9322 88.1552C76.8 85.8272 75.708 84.508 74.0297 84.6012C72.3515 84.6945 71.4133 86.1295 71.5455 88.4575C71.6779 90.7651 72.7696 92.1046 74.4479 92.0114C76.1329 91.9182 77.0646 90.4628 76.9322 88.1552Z" fill="#FF0066"/>
<path d="M88.2431 90.9589L87.8421 92.1641C87.1515 92.7503 86.2619 93.0431 85.2529 93.1518C83.3975 93.351 81.685 92.4294 81.4679 90.3912C81.2144 88.0278 83.094 86.4833 86.9876 86.0738L87.6716 86.0015L87.6474 85.778C87.611 85.4529 87.5813 85.1347 87.4981 84.7752C87.3386 84.0361 86.7972 83.5422 85.7069 83.6634C84.5963 83.7842 84.0597 84.4941 84.1053 85.6714L81.4032 85.9813C81.2249 83.5513 83.0374 81.9721 85.597 81.7009C88.6036 81.3813 89.873 82.5744 90.228 84.4116C90.3229 84.9132 90.4036 85.4755 90.4637 86.0578L90.8314 89.5249C90.9156 90.3307 91.0347 91.0558 91.3239 92.2294L88.6017 92.5188L88.2431 90.9589ZM87.9493 88.5815L87.8591 87.7147C85.6198 87.7872 84.1843 88.4517 84.3351 89.867C84.4378 90.815 85.1295 91.1891 86.1181 91.0869C87.2423 90.9595 88.1126 90.0713 87.9493 88.5815Z" fill="#FF0066"/>
<path d="M104.558 90.1419L101.793 90.5998L101.523 88.9598L100.918 90.2707C100.397 90.832 99.3561 91.2919 98.2786 91.4673C95.2968 91.963 93.1584 89.9878 92.6444 86.8502C92.0046 82.9874 94.0432 80.6537 96.7877 80.2023C97.6687 80.0581 98.7839 80.0996 99.3888 80.3914L100.269 81.3766L99.359 75.8941L102.124 75.4362L104.558 90.1419ZM100.94 85.3953L100.852 84.8735C100.457 82.4745 98.9305 81.8394 97.6497 82.0528C96.0504 82.3161 95.0718 83.7371 95.4795 86.1971C95.8435 88.3792 97.1252 89.6671 98.7652 89.3975C100.283 89.1467 101.366 87.9976 100.94 85.3953Z" fill="#FF0066"/>
<path d="M113.836 80.1792L111.109 80.8134C110.709 79.8886 110.045 79.4607 109.136 79.6721C108.329 79.8578 108.004 80.4352 108.151 81.0863C108.336 81.8799 109.084 82.1397 110.923 82.1702C113.208 82.2201 114.674 82.7935 115.123 84.7334C115.616 86.8496 113.94 88.3224 111.526 88.8795C108.975 89.4754 106.922 88.7862 106.072 86.4828L108.799 85.8485C109.285 86.9436 110.201 87.2935 111.143 87.069C112.012 86.8638 112.6 86.3372 112.421 85.564C112.235 84.7569 111.434 84.4625 109.514 84.4309C107.445 84.3907 105.904 83.8568 105.481 82.039C105.013 80.0246 106.386 78.4126 108.896 77.8297C111.406 77.2468 113.15 78.3175 113.836 80.1792Z" fill="#FF0066"/>
<defs>
<linearGradient id="paint0_linear" x1="4.8776" y1="62.0154" x2="67.2604" y2="62.0154" gradientUnits="userSpaceOnUse">
<stop offset="0.3062" stop-color="white"/>
<stop offset="0.9677"/>
</linearGradient>
</defs>
</svg>
