<svg width="125" height="69" viewBox="0 0 125 69" fill="none" xmlns="http://www.w3.org/2000/svg">
<path d="M160.732 51.1684C100.728 51.1684 41.7133 26.2607 0.106141 -17.1863C-0.0353802 -17.3278 -0.0353802 -17.7523 0.106141 -17.8939C0.247662 -18.0354 0.672224 -18.0354 0.813745 -17.8939C46.242 29.6572 112.615 54.8479 178.139 49.4701C178.422 49.4701 178.706 49.6116 178.706 49.8947C178.706 50.1777 178.564 50.4607 178.281 50.4607C172.337 51.0268 166.535 51.1684 160.732 51.1684Z" fill="#7E7A7C"/>
<path d="M82.3298 34.3274L93.3684 38.573L84.7356 61.6409L76.3859 50.1777L62.6583 53.2912L71.4326 30.2233L82.3298 34.3274Z" fill="#A9A9A9"/>
<path d="M85.8273 45.9704C85.9662 45.6051 85.7827 45.1963 85.4174 45.0574C85.0522 44.9185 84.6434 45.102 84.5045 45.4673C84.3656 45.8325 84.549 46.2413 84.9143 46.3802C85.2796 46.5191 85.6884 46.3357 85.8273 45.9704Z" fill="#7E7A7C"/>
<path d="M83.261 53.0817C83.3996 52.7163 83.2157 52.3077 82.8503 52.1692C82.4849 52.0306 82.0764 52.2144 81.9378 52.5798C81.7992 52.9452 81.9831 53.3538 82.3485 53.4924C82.7139 53.6309 83.1224 53.4471 83.261 53.0817Z" fill="#7E7A7C"/>
<path d="M86.9737 50.5342C87.1124 50.1688 86.9287 49.7602 86.5633 49.6215C86.198 49.4828 85.7894 49.6666 85.6507 50.0319C85.512 50.3973 85.6957 50.8059 86.0611 50.9446C86.4264 51.0833 86.835 50.8996 86.9737 50.5342Z" fill="#7E7A7C"/>
<path d="M89.689 48.1963C89.406 48.0548 89.2645 47.6303 89.406 47.3472C89.5475 47.0642 89.8305 46.7811 90.2551 46.9227L89.689 48.1963Z" fill="#7E7A7C"/>
<path d="M89.3761 43.5243C89.5147 43.1589 89.3309 42.7503 88.9655 42.6117C88.6001 42.4731 88.1915 42.657 88.0529 43.0223C87.9143 43.3877 88.0981 43.7963 88.4635 43.9349C88.8289 44.0736 89.2375 43.8897 89.3761 43.5243Z" fill="#7E7A7C"/>
<path d="M84.5739 57.0686C84.7118 56.703 84.5272 56.2947 84.1616 56.1568C83.796 56.0188 83.3877 56.2034 83.2498 56.569C83.1118 56.9347 83.2964 57.3429 83.662 57.4809C84.0277 57.6188 84.4359 57.4342 84.5739 57.0686Z" fill="#7E7A7C"/>
<path d="M82.264 48.7761C82.4025 48.4107 82.2187 48.0022 81.8533 47.8636C81.4879 47.725 81.0793 47.9089 80.9407 48.2743C80.8022 48.6397 80.986 49.0483 81.3514 49.1868C81.7168 49.3254 82.1254 49.1415 82.264 48.7761Z" fill="#7E7A7C"/>
<path d="M81.1184 44.223C81.2564 43.8574 81.072 43.4491 80.7064 43.3111C80.3408 43.173 79.9325 43.3575 79.7944 43.723C79.6564 44.0886 79.8408 44.4969 80.2064 44.635C80.572 44.7731 80.9803 44.5886 81.1184 44.223Z" fill="#7E7A7C"/>
<path d="M77.6505 47.0665C77.7887 46.701 77.6044 46.2926 77.2389 46.1544C76.8734 46.0162 76.465 46.2004 76.3268 46.566C76.1886 46.9315 76.3728 47.3398 76.7384 47.4781C77.1039 47.6163 77.5122 47.432 77.6505 47.0665Z" fill="#7E7A7C"/>
<path d="M80.1013 39.8818C80.2403 39.5165 80.057 39.1077 79.6917 38.9687C79.3265 38.8296 78.9177 39.013 78.7786 39.3782C78.6396 39.7435 78.8229 40.1523 79.1882 40.2913C79.5534 40.4304 79.9622 40.247 80.1013 39.8818Z" fill="#7E7A7C"/>
<path d="M78.7045 51.2184C78.8431 50.853 78.6592 50.4444 78.2938 50.3059C77.9284 50.1673 77.5199 50.3512 77.3813 50.7166C77.2427 51.082 77.4266 51.4905 77.792 51.6291C78.1574 51.7677 78.5659 51.5838 78.7045 51.2184Z" fill="#7E7A7C"/>
<path d="M84.7734 41.8198C84.9119 41.4544 84.7281 41.0459 84.3627 40.9073C83.9973 40.7687 83.5887 40.9526 83.4501 41.318C83.3116 41.6834 83.4954 42.092 83.8608 42.2305C84.2262 42.3691 84.6348 42.1852 84.7734 41.8198Z" fill="#7E7A7C"/>
<path d="M76.4859 42.5102C76.6241 42.1447 76.4399 41.7364 76.0744 41.5981C75.7089 41.4599 75.3005 41.6442 75.1623 42.0097C75.024 42.3752 75.2083 42.7836 75.5738 42.9218C75.9393 43.06 76.3477 42.8758 76.4859 42.5102Z" fill="#7E7A7C"/>
<path d="M71.8007 40.7071C71.9396 40.3418 71.7561 39.933 71.3908 39.7941C71.0255 39.6552 70.6168 39.8387 70.4779 40.204C70.3389 40.5692 70.5224 40.978 70.8877 41.1169C71.253 41.2558 71.6617 41.0723 71.8007 40.7071Z" fill="#7E7A7C"/>
<path d="M65.9068 50.0499C66.0445 49.6842 65.8598 49.2761 65.494 49.1383C65.1283 49.0006 64.7202 49.1854 64.5824 49.5511C64.4447 49.9168 64.6295 50.3249 64.9952 50.4627C65.3609 50.6004 65.769 50.4157 65.9068 50.0499Z" fill="#7E7A7C"/>
<path d="M69.3783 47.71C69.5166 47.3445 69.3326 46.936 68.9671 46.7977C68.6016 46.6593 68.1931 46.8434 68.0548 47.2089C67.9164 47.5743 68.1005 47.9828 68.466 48.1212C68.8314 48.2596 69.2399 48.0755 69.3783 47.71Z" fill="#7E7A7C"/>
<path d="M69.3101 51.7343C69.1686 51.5927 69.1686 51.3097 69.3101 51.1682C69.4516 50.7436 69.8762 50.6021 70.1593 50.7436C70.4423 50.8851 70.5838 51.1682 70.5838 51.4512L69.3101 51.7343Z" fill="#7E7A7C"/>
<path d="M87.0001 54.4231C87.1417 54.1401 87.2832 53.9985 87.5662 53.9985L87.1417 55.2722C87.0002 54.9892 86.8586 54.7061 87.0001 54.4231Z" fill="#7E7A7C"/>
<path d="M68.4237 43.3996C68.5627 43.0343 68.3793 42.6255 68.0141 42.4865C67.6489 42.3474 67.2401 42.5308 67.101 42.896C66.962 43.2613 67.1453 43.6701 67.5106 43.8091C67.8758 43.9482 68.2846 43.7648 68.4237 43.3996Z" fill="#7E7A7C"/>
<path d="M70.767 36.4099C70.9053 36.0444 70.721 35.636 70.3555 35.4978C69.99 35.3595 69.5816 35.5437 69.4433 35.9092C69.3051 36.2747 69.4893 36.6831 69.8548 36.8214C70.2203 36.9597 70.6287 36.7754 70.767 36.4099Z" fill="#7E7A7C"/>
<path d="M75.4909 38.1521C75.6296 37.7868 75.4459 37.3781 75.0806 37.2394C74.7152 37.1007 74.3066 37.2844 74.1678 37.6497C74.0291 38.0151 74.2128 38.4237 74.5782 38.5625C74.9435 38.7012 75.3522 38.5175 75.4909 38.1521Z" fill="#7E7A7C"/>
<path d="M79.9235 54.9886L79.4995 54.4232C79.7822 54.4232 79.9235 54.7059 79.9235 54.9886Z" fill="#7E7A7C"/>
<path d="M84.5943 60.9331C84.7358 60.6501 84.8774 60.5085 85.1604 60.5085L84.7358 61.6407L84.5943 61.4992C84.4528 61.2162 84.4528 61.0746 84.5943 60.9331Z" fill="#7E7A7C"/>
<path d="M72.9654 45.2952C73.1039 44.9297 72.9199 44.5212 72.5544 44.3828C72.189 44.2443 71.7805 44.4283 71.6421 44.7938C71.5036 45.1592 71.6876 45.5677 72.053 45.7061C72.4185 45.8446 72.827 45.6606 72.9654 45.2952Z" fill="#7E7A7C"/>
<path d="M74.0023 49.4219C74.1413 49.0567 73.958 48.6479 73.5927 48.5088C73.2275 48.3698 72.8187 48.5531 72.6796 48.9184C72.5406 49.2836 72.7239 49.6924 73.0892 49.8315C73.4544 49.9705 73.8632 49.7872 74.0023 49.4219Z" fill="#7E7A7C"/>
<path d="M93.3685 38.573L92.0948 41.828L70.1591 33.4782L71.4327 30.2233L82.3299 34.3274L93.3685 38.573Z" fill="#6E6B6D"/>
<path opacity="0.3" d="M86.1509 35.7426L93.3684 38.4315L84.5941 61.4994L78.6503 53.1496C84.8772 49.3286 87.4245 42.6771 86.1509 35.7426Z" fill="#626061"/>
<path d="M108.794 42.1109L120.116 44.9413L114.455 68.9999L104.832 58.5273L91.5287 63.4806L97.331 39.422L108.794 42.1109Z" fill="#B21F54"/>
<path d="M120.116 44.9413L119.408 48.3378L96.4819 42.8185L97.331 39.422L108.794 42.1109L120.116 44.9413Z" fill="#FF2A66"/>
<path opacity="0.3" d="M112.615 43.1014L120.116 44.9412L114.455 68.9998L107.521 61.4992C113.181 56.6874 114.88 49.8944 112.615 43.1014Z" fill="#570426"/>
<path d="M56.9975 22.5812L67.4701 27.959L56.2899 49.8947L49.3554 37.5824L35.3448 39.2806L46.6665 17.2034L56.9975 22.5812Z" fill="#FF0066"/>
<path d="M67.4699 27.959L65.9131 31.0724L44.968 20.4584L46.6663 17.2034L56.9973 22.5812L67.4699 27.959Z" fill="#B21F54"/>
<path opacity="0.3" d="M60.677 24.4208L67.6115 27.9588L56.4314 49.8945L51.4781 40.9787C57.8466 37.7237 61.2431 31.4968 60.677 24.4208Z" fill="#910740"/>
<path d="M34.0712 8.57047L43.6946 15.222L29.684 35.4594L24.4478 22.4395L10.2957 22.1565L24.4478 1.77747L34.0712 8.57047Z" fill="#A9A9A9"/>
<path d="M41.0057 19.1846L39.732 21.0244L36.6185 10.2688L38.7413 11.8255L41.0057 19.1846Z" fill="#DEDEDE"/>
<path d="M24.8723 2.06042L26.9951 3.61715L34.3542 28.6664L33.222 30.5061L24.8723 2.06042Z" fill="#DEDEDE"/>
<path d="M30.6747 6.16479L32.939 7.72152L37.7507 23.9964L36.477 25.8362L30.6747 6.16479Z" fill="#DEDEDE"/>
<path d="M18.0793 10.9764L19.3531 9.1366L23.1741 22.298H21.4759L18.0793 10.9764Z" fill="#DEDEDE"/>
<path d="M11.5693 20.4584L12.7015 18.7601L13.8336 22.1566H11.9939L11.5693 20.4584Z" fill="#DEDEDE"/>
<path d="M21.3344 6.16456L22.608 4.46631L31.0993 33.4781L29.8256 35.3179L21.3344 6.16456Z" fill="#DEDEDE"/>
<path d="M14.8243 15.7881L16.098 13.9484L18.5039 22.2981H16.6641L14.8243 15.7881Z" fill="#DEDEDE"/>
<path d="M43.6945 15.222L41.7132 18.0524L22.3248 4.74941L24.4476 1.77747L34.0711 8.57047L43.6945 15.222Z" fill="#7E7A7C"/>
<path opacity="0.3" d="M37.3262 10.835L43.6947 15.2221L29.6841 35.4596L25.863 25.9777C32.9391 23.7134 37.0432 17.911 37.3262 10.835Z" fill="#535353"/>
</svg>
