<svg width="193" height="28" viewBox="0 0 193 28" fill="none" xmlns="http://www.w3.org/2000/svg">
<path d="M18.6887 21.3197L14.9354 22.0162L10.331 10.6792L9.98277 22.9448L6.19086 23.6413L0 10.1375L3.05673 9.5571L7.66119 21.1263L7.97073 8.86063L11.9561 8.12547L16.5606 19.5012L16.8701 7.00337L19.7721 6.46167L18.6887 21.3197Z" fill="#FF0066"/>
<path d="M32.3859 14.4711L24.5699 15.5932C25.0729 17.8761 26.2337 18.4564 27.5493 18.263C28.7874 18.0695 29.5613 17.257 29.5613 16.0575L32.4246 15.6319C32.2311 18.263 30.3738 19.8881 27.7814 20.2363C24.7634 20.6619 22.171 19.1142 21.5906 15.2449C21.0876 11.8787 22.9448 9.09277 26.3498 8.58976C29.7161 8.08675 31.8829 10.4083 32.3085 13.4264C32.3085 13.7359 32.3472 14.0842 32.3859 14.4711ZM24.3764 13.6972L29.2131 13.0007C28.7874 11.2983 27.8588 10.4857 26.5046 10.6792C25.1503 10.8726 24.3378 11.84 24.3764 13.6972Z" fill="#FF0066"/>
<path d="M44.9998 16.2123L44.5741 17.4505C43.8777 18.0696 42.9491 18.3404 41.9043 18.4565C40.0084 18.65 38.2285 17.7213 37.9964 15.6319C37.7255 13.1943 39.6601 11.6079 43.6842 11.1822L44.3807 11.1049L44.342 10.8727C44.3033 10.5245 44.2646 10.2149 44.1872 9.828C44.0324 9.05414 43.452 8.55113 42.33 8.66721C41.1692 8.78329 40.6275 9.51845 40.6662 10.7179L37.8803 11.0275C37.6868 8.51244 39.5441 6.88733 42.2139 6.61648C45.3093 6.26825 46.6249 7.50642 46.9731 9.40238C47.0892 9.90538 47.1666 10.4858 47.2053 11.1049L47.5922 14.6646C47.6696 15.4772 47.7857 16.251 48.0952 17.4505L45.3093 17.76L44.9998 16.2123ZM44.6902 13.7747L44.6128 12.8847C42.2913 12.9621 40.8209 13.6586 40.9757 15.0902C41.0918 16.0576 41.7883 16.4445 42.7943 16.3284C43.9551 16.2123 44.845 15.2837 44.6902 13.7747Z" fill="#FF0066"/>
<path d="M56.066 5.49438L56.2594 7.81596C53.8605 7.85465 52.7384 9.01544 53.0092 11.9948L53.4348 17.0635L50.5716 17.2957L49.6429 6.22955L52.5062 5.9974L52.661 8.00942L53.3961 6.38433C53.8992 5.84263 54.5956 5.53307 55.2147 5.45569C55.563 5.45569 55.7951 5.45569 56.066 5.49438Z" fill="#FF0066"/>
<path d="M68.022 11.2209L60.1286 11.7239C60.4768 14.0455 61.5602 14.7033 62.8758 14.6259C64.114 14.5485 64.9652 13.8133 65.0813 12.6139L67.9446 12.4204C67.5576 15.0515 65.5456 16.4831 62.9532 16.6379C59.8964 16.8314 57.4201 15.0902 57.1879 11.1822C56.9558 7.77725 59.0452 5.14613 62.4502 4.95267C65.8551 4.7592 67.7898 7.19686 67.9833 10.2149C68.022 10.5244 68.022 10.834 68.022 11.2209ZM60.0899 9.82797L64.9652 9.51842C64.6557 7.77724 63.8044 6.88732 62.4502 6.9647C61.1346 7.08078 60.2447 7.97071 60.0899 9.82797Z" fill="#FF0066"/>
<path d="M83.9635 8.35765L81.1002 8.43504C80.7907 6.84864 79.9394 6.19085 78.74 6.22955C77.2696 6.26824 76.2636 7.50642 76.341 10.0215C76.4184 12.7686 77.5018 13.9294 78.9334 13.8907C80.0555 13.852 80.8681 13.1169 81.1389 11.7239L84.0022 11.6465C83.6153 14.3937 81.6032 15.8641 78.8173 15.9415C75.7993 16.0188 73.439 14.1616 73.3229 10.331C73.2069 6.53909 75.6445 4.3336 78.7013 4.21752C81.758 4.10144 83.6539 5.88131 83.9635 8.35765Z" fill="#FF0066"/>
<path d="M95.9197 10.5632L88.0264 10.6019C88.2198 12.9235 89.2645 13.6586 90.6188 13.6586C91.857 13.6586 92.7469 12.9622 92.9404 11.7627H95.8423C95.3006 14.3551 93.2112 15.6707 90.6188 15.7093C87.5621 15.748 85.2018 13.8521 85.1631 9.94411C85.1244 6.53914 87.3686 4.02411 90.7736 4.02411C94.1785 3.98542 95.9971 6.57784 95.9971 9.59588C95.9584 9.86673 95.9584 10.1763 95.9197 10.5632ZM88.1038 8.74463L92.9791 8.70595C92.7856 6.96477 91.973 6.03613 90.6188 6.03613C89.3032 6.03613 88.3359 6.88737 88.1038 8.74463Z" fill="#FF0066"/>
<path d="M100.756 11.8013C100.756 12.2269 100.756 12.5365 100.756 12.8073C100.795 13.3877 101.066 13.5812 102.033 13.5038L101.994 15.4771C101.414 15.5158 100.872 15.5545 100.215 15.5545C98.7829 15.5545 97.8929 15.0128 97.8542 13.5425C97.8155 13.0395 97.8156 12.5365 97.8156 11.8013L97.9703 0L100.872 0.0386834L100.756 11.8013Z" fill="#FF0066"/>
<path d="M113.873 10.9888L105.98 10.7566C106.096 13.1169 107.102 13.852 108.456 13.8907C109.694 13.9294 110.623 13.2716 110.816 12.0722L113.68 12.1496C113.022 14.7033 110.894 15.9801 108.301 15.9028C105.245 15.8254 102.962 13.852 103.078 9.94406C103.194 6.53909 105.477 4.14013 108.882 4.21752C112.287 4.3336 113.989 6.96471 113.912 9.98275C113.951 10.2923 113.912 10.6018 113.873 10.9888ZM106.135 8.86066L111.01 9.01543C110.894 7.27425 110.12 6.30693 108.727 6.26823C107.411 6.22954 106.444 7.0421 106.135 8.86066Z" fill="#FF0066"/>
<path d="M127.532 10.7567C127.3 14.7807 124.707 16.6767 121.883 16.4832C120.954 16.4445 119.87 16.135 119.329 15.7093L118.671 14.5099L118.594 15.9802L115.73 15.8254L116.62 0.503052L119.484 0.657821L119.135 6.57784L120.025 5.41705C120.683 4.95274 121.805 4.75927 122.966 4.79796C126.023 5.03012 127.725 7.50646 127.532 10.7567ZM124.552 10.7954C124.668 8.51248 123.701 6.92607 121.96 6.84868C120.373 6.77129 119.019 7.66123 118.864 10.3697L118.826 10.8727C118.671 13.3878 120.064 14.3938 121.418 14.4712C123.082 14.5486 124.398 13.3491 124.552 10.7954Z" fill="#FF0066"/>
<path d="M136.354 5.95872L136.16 8.28029C133.761 7.93206 132.523 8.89937 132.252 11.8787L131.865 16.9475L129.002 16.7153L129.892 5.64917L132.755 5.88133L132.6 7.89336L133.606 6.42303C134.187 5.95871 134.922 5.76525 135.58 5.84263C135.889 5.80394 136.121 5.84264 136.354 5.95872Z" fill="#FF0066"/>
<path d="M143.202 16.3283L142.545 17.4504C141.732 17.876 140.765 17.9921 139.72 17.9147C137.824 17.7213 136.276 16.4444 136.508 14.3163C136.741 11.8787 138.985 10.7179 142.97 11.1435L143.667 11.2209L143.705 10.9887C143.744 10.6405 143.783 10.3309 143.783 9.94401C143.783 9.17016 143.318 8.55107 142.196 8.43499C141.036 8.31891 140.378 8.938 140.146 10.0988L137.36 9.82794C137.708 7.35159 139.875 6.15212 142.506 6.38428C145.601 6.69382 146.646 8.16414 146.607 10.0988C146.607 10.6405 146.569 11.2209 146.491 11.8013L146.143 15.361C146.066 16.1736 146.027 16.9474 146.066 18.1856L143.241 17.9147L143.202 16.3283ZM143.434 13.8907L143.512 13.0007C141.229 12.6138 139.643 12.9621 139.488 14.4324C139.372 15.3997 139.991 15.9414 141.036 16.0575C142.196 16.1349 143.28 15.4384 143.434 13.8907Z" fill="#FF0066"/>
<path d="M152.334 15.0128C152.295 15.3997 152.256 15.7093 152.218 15.9801C152.179 17.0635 152.527 17.373 154.152 17.4504L153.92 19.3077C153.262 19.3464 152.643 19.3077 152.024 19.2303C149.896 18.9595 149.2 18.1469 149.277 16.5992C149.316 16.0962 149.354 15.6319 149.432 15.0128L150.09 9.59578L148.464 9.40232L148.697 7.50637L150.322 7.69983L150.67 4.99133L153.533 5.33957L153.185 8.04807L155.468 8.31892L155.236 10.2149L152.953 9.94402L152.334 15.0128Z" fill="#FF0066"/>
<path d="M155.855 19.5012L157.403 8.47371L160.266 8.86063L158.718 19.8881L155.855 19.5012ZM160.769 6.3456C160.653 7.27423 159.918 7.77723 158.989 7.62246C158.06 7.50638 157.519 6.80991 157.635 5.88128C157.751 4.99134 158.486 4.44965 159.415 4.60442C160.343 4.7205 160.885 5.45566 160.769 6.3456Z" fill="#FF0066"/>
<path d="M172.609 15.7481L171.603 21.9389L168.74 21.4746L169.668 15.6707C169.746 15.2064 169.823 14.7034 169.862 14.123C169.978 12.9622 169.475 12.0723 168.082 11.8401C166.689 11.6079 165.412 12.614 164.909 15.6707L164.096 20.7008L161.233 20.2365L163.013 9.24768L165.876 9.71199L165.605 11.4919L166.65 10.3311C167.54 9.90545 168.353 9.82807 169.397 9.98284C171.719 10.3698 172.88 11.724 172.802 13.6974C172.802 14.3164 172.764 14.8581 172.609 15.7481Z" fill="#FF0066"/>
<path d="M185.107 21.7454C184.991 22.4032 184.797 23.2544 184.681 23.8348C183.869 27.2011 181.353 28.4006 177.91 27.7428C174.698 27.1237 173.189 25.4212 173.421 22.9836L173.46 22.7901L176.207 23.3318V23.5253C176.13 24.57 176.942 25.3825 178.413 25.6534C180.154 26.0016 181.392 25.3439 181.856 23.6027C181.973 23.2158 182.05 22.7514 182.127 22.2871L182.166 22.0163L181.121 23.061C180.425 23.4092 179.38 23.4866 178.258 23.2931C175.201 22.674 173.731 20.1203 174.35 16.9088C175.124 12.9621 177.948 11.5305 180.734 12.0722C181.624 12.2657 182.708 12.6913 183.172 13.1943L183.675 14.4712L183.946 13.0008L186.77 13.5425L185.107 21.7454ZM182.824 18.3404L182.901 18.0309C183.404 15.5546 182.166 14.3938 180.85 14.1616C179.225 13.8521 177.794 14.742 177.291 17.2184C176.865 19.4625 177.639 21.0876 179.303 21.3972C180.85 21.7067 182.321 21.0103 182.824 18.3404Z" fill="#FF0066"/>
<path d="M190.369 24.4152C190.175 25.3438 189.324 25.8468 188.396 25.6534C187.467 25.4599 186.964 24.6473 187.157 23.7187C187.351 22.7901 188.202 22.2871 189.092 22.4805C190.059 22.674 190.562 23.4866 190.369 24.4152ZM188.241 21.0876L190.253 10.9888L193 11.6079L190.485 21.5906L188.241 21.0876Z" fill="#FF0066"/>
</svg>
