<svg xmlns="http://www.w3.org/2000/svg" width="35" height="67" viewBox="0 0 35 67"><circle fill="#1BCC4E" cx="17.5" cy="17.5" r="13.5"/><path fill="#FFF" d="M8 13h18v10H8z"/><path fill="#1BCC4E" d="M16 16h1v2h-1z"/><path fill="#1BCC4E" d="M29 13c0-1-.9-2-2.1-2H8.1c-1.2 0-2.1.9-2.1 2.1V23c0 1.1.9 2 2.1 2H27c1.1 0 2-.9 2-2.1V13zm-15 2.9V18h-1v2h-1v1h-1v-1h-1v-2H9v-3h1v1h1v2h1v-2h1v-1h1v.9zm5 0V19h-3v2h-1v-6h4v.9zm6 5.1h-1v-1h-2v-1h-1v2h-1v-6h1v1h2v1h1v-2h1v6z"/><path d="M21 16h1v1h-1zm1 1h1v1h-1zm0 1h1v1h-1zm1 1h1v1h-1z" opacity=".4" fill="#1BCC4E"/><path d="M18 15h1v1h-1zm0 3h1v1h-1z" opacity=".5" fill="#1BCC4E"/><path opacity=".75" fill="#1BCC4E" d="M17 18h1v-2h-1zm4 0h1v1h-1zm2-1h1v1h-1zm-1-1h1v1h-1zm0 3h1v1h-1z"/><path d="M10 17h1v1h-1zm2 0h1v1h-1zm-2 1h1v1h-1zm2 0h1v1h-1z" opacity=".2" fill="#1BCC4E"/><path d="M10 16h1v1h-1zm2 0h1v1h-1zm-1 2h1v1h-1zm-2-1h1v1H9zm4 0h1v1h-1zm-3 2h1v1h-1zm2 0h1v1h-1z" opacity=".61" fill="#1BCC4E"/><path opacity=".5" fill="#1BCC4E" d="M21 17h1v1h-1zm2 1h1v1h-1z"/><circle fill="#FD5F59" cx="17.5" cy="49.5" r="13.5"/><path fill="#FFF" d="M8 45h18v10H8z"/><path fill="#FD5F59" d="M16 48h1v2h-1z"/><path fill="#FD5F59" d="M29 45c0-1-.9-2-2.1-2H8.1c-1.2 0-2.1.9-2.1 2.1V55c0 1.1.9 2 2.1 2H27c1.1 0 2-.9 2-2.1V45zm-15 2.9V50h-1v2h-1v1h-1v-1h-1v-2H9v-3h1v1h1v2h1v-2h1v-1h1v.9zm5 0V51h-3v2h-1v-6h4v.9zm6 5.1h-1v-1h-2v-1h-1v2h-1v-6h1v1h2v1h1v-2h1v6z"/><path d="M21 48h1v1h-1zm1 1h1v1h-1zm0 1h1v1h-1zm1 1h1v1h-1z" opacity=".4" fill="#FD5F59"/><path d="M18 47h1v1h-1zm0 3h1v1h-1z" opacity=".5" fill="#FD5F59"/><path opacity=".75" fill="#FD5F59" d="M17 50h1v-2h-1zm4 0h1v1h-1zm2-1h1v1h-1zm-1-1h1v1h-1zm0 3h1v1h-1z"/><path d="M10 49h1v1h-1zm2 0h1v1h-1zm-2 1h1v1h-1zm2 0h1v1h-1z" opacity=".2" fill="#FD5F59"/><path d="M10 48h1v1h-1zm2 0h1v1h-1zm-1 2h1v1h-1zm-2-1h1v1H9zm4 0h1v1h-1zm-3 2h1v1h-1zm2 0h1v1h-1z" opacity=".61" fill="#FD5F59"/><path opacity=".5" fill="#FD5F59" d="M21 49h1v1h-1zm2 1h1v1h-1z"/><path fill="none" stroke="#FFF" stroke-miterlimit="10" d="M8 40l19 19"/></svg>